{
date = "2012-08-21 05:40:05 +0000";
familyName = "metrickal-fat5";
featurePrefixes = (
{
automatic = 1;
code = "languagesystem DFLT dflt;\012languagesystem latn dflt;\012";
name = Languagesystems;
}
);
fontMaster = (
{
ascender = 800;
capHeight = 700;
descender = "-200";
id = "85308D4F-3C98-4E4B-A926-E3A24A251B96";
weightValue = 80;
widthValue = 80;
xHeight = 500;
}
);
glyphs = (
{
glyphname = A;
lastChange = "2014-04-21 02:34:25 -0800";
layers = (
{
anchors = (
{
name = ogonek;
position = "{468, 10}";
},
{
name = top;
position = "{260, 700}";
}
);
guideLines = (
{
angle = 90;
position = "{70, 800}";
},
{
angle = 90;
position = "{490, 800}";
},
{
angle = 90;
position = "{280, 800}";
},
{
position = "{10, 350}";
}
);
layerId = "85308D4F-3C98-4E4B-A926-E3A24A251B96";
name = Regular;
paths = (
{
closed = 1;
nodes = (
"280 560 LINE",
"340 300 LINE",
"220 300 LINE"
);
},
{
closed = 1;
nodes = (
"357 220 LINE",
"410 0 LINE",
"490 0 LINE",
"320 700 LINE",
"240 700 LINE",
"70 0 LINE",
"150 0 LINE",
"203 220 LINE"
);
}
);
width = 560;
}
);
unicode = 0041;
},
{
glyphname = B;
lastChange = "2014-04-21 02:35:11 -0800";
layers = (
{
guideLines = (
{
angle = 90;
position = "{70, 800}";
},
{
angle = 90;
position = "{490, 800}";
},
{
angle = 90;
position = "{280, 800}";
},
{
position = "{10, 350}";
}
);
layerId = "85308D4F-3C98-4E4B-A926-E3A24A251B96";
name = Regular;
paths = (
{
closed = 0;
nodes = (
"220 310 LINE"
);
},
{
closed = 1;
nodes = (
"150 390 LINE",
"150 620 LINE",
"260 620 LINE",
"380 620 OFFCURVE",
"410 575 OFFCURVE",
"410 505 CURVE",
"410 435 OFFCURVE",
"340 390 OFFCURVE",
"220 390 CURVE"
);
},
{
closed = 1;
nodes = (
"150 80 LINE",
"150 310 LINE",
"220 310 LINE",
"340 310 OFFCURVE",
"410 265 OFFCURVE",
"410 195 CURVE",
"410 125 OFFCURVE",
"380 80 OFFCURVE",
"260 80 CURVE"
);
},
{
closed = 1;
nodes = (
"434 372 OFFCURVE",
"490 425 OFFCURVE",
"490 505 CURVE SMOOTH",
"490 634 OFFCURVE",
"415 700 OFFCURVE",
"260 700 CURVE",
"70 700 LINE",
"70 0 LINE",
"260 0 LINE",
"415 0 OFFCURVE",
"490 66 OFFCURVE",
"490 195 CURVE SMOOTH",
"490 275 OFFCURVE",
"438 328 OFFCURVE",
"390 350 CURVE"
);
},
{
closed = 0;
nodes = (
"220 390 LINE"
);
}
);
width = 560;
}
);
unicode = 0042;
},
{
glyphname = C;
lastChange = "2014-04-21 02:35:24 -0800";
layers = (
{
anchors = (
{
name = bottom;
position = "{260, 0}";
},
{
name = top;
position = "{260, 700}";
}
);
guideLines = (
{
angle = 90;
position = "{70, 800}";
},
{
angle = 90;
position = "{490, 800}";
},
{
angle = 90;
position = "{280, 800}";
},
{
position = "{10, 350}";
}
);
layerId = "85308D4F-3C98-4E4B-A926-E3A24A251B96";
name = Regular;
paths = (
{
closed = 1;
nodes = (
"433 147 LINE",
"365 85 OFFCURVE",
"325 80 OFFCURVE",
"300 80 CURVE SMOOTH",
"195 80 OFFCURVE",
"150 200 OFFCURVE",
"150 350 CURVE SMOOTH",
"150 500 OFFCURVE",
"195 620 OFFCURVE",
"300 620 CURVE SMOOTH",
"325 620 OFFCURVE",
"365 615 OFFCURVE",
"433 553 CURVE",
"490 610 LINE",
"405 700 OFFCURVE",
"340 700 OFFCURVE",
"300 700 CURVE SMOOTH",
"135 700 OFFCURVE",
"70 549 OFFCURVE",
"70 350 CURVE SMOOTH",
"70 151 OFFCURVE",
"135 0 OFFCURVE",
"300 0 CURVE SMOOTH",
"340 0 OFFCURVE",
"405 0 OFFCURVE",
"490 90 CURVE"
);
}
);
width = 560;
}
);
unicode = 0043;
},
{
glyphname = D;
lastChange = "2014-04-21 02:36:42 -0800";
layers = (
{
anchors = (
{
name = center;
position = "{260, 350}";
},
{
name = top;
position = "{260, 700}";
}
);
guideLines = (
{
angle = 90;
position = "{70, 800}";
},
{
angle = 90;
position = "{490, 800}";
},
{
angle = 90;
position = "{280, 800}";
},
{
position = "{10, 350}";
}
);
layerId = "85308D4F-3C98-4E4B-A926-E3A24A251B96";
name = Regular;
paths = (
{
closed = 1;
nodes = (
"410 120 OFFCURVE",
"280 80 OFFCURVE",
"230 80 CURVE",
"150 80 LINE",
"150 620 LINE",
"230 620 LINE",
"280 620 OFFCURVE",
"410 580 OFFCURVE",
"410 350 CURVE"
);
},
{
closed = 1;
nodes = (
"490 580 OFFCURVE",
"375 700 OFFCURVE",
"220 700 CURVE",
"70 700 LINE",
"70 0 LINE",
"220 0 LINE",
"375 0 OFFCURVE",
"490 121 OFFCURVE",
"490 350 CURVE SMOOTH"
);
}
);
width = 560;
}
);
unicode = 0044;
},
{
glyphname = E;
lastChange = "2014-04-21 02:36:57 -0800";
layers = (
{
anchors = (
{
name = bottom;
position = "{260, 0}";
},
{
name = ogonek;
position = "{468, 10}";
},
{
name = top;
position = "{260, 700}";
}
);
guideLines = (
{
angle = 90;
position = "{70, 800}";
},
{
angle = 90;
position = "{490, 800}";
},
{
angle = 90;
position = "{280, 800}";
},
{
position = "{10, 350}";
}
);
layerId = "85308D4F-3C98-4E4B-A926-E3A24A251B96";
name = Regular;
paths = (
{
closed = 1;
nodes = (
"70 0 LINE",
"490 0 LINE",
"490 80 LINE",
"150 80 LINE",
"150 310 LINE",
"420 310 LINE",
"420 390 LINE",
"150 390 LINE",
"150 620 LINE",
"490 620 LINE",
"490 700 LINE",
"70 700 LINE"
);
}
);
width = 560;
}
);
unicode = 0045;
},
{
glyphname = F;
lastChange = "2014-04-21 02:41:58 -0800";
layers = (
{
guideLines = (
{
angle = 90;
position = "{70, 800}";
},
{
angle = 90;
position = "{490, 800}";
},
{
angle = 90;
position = "{280, 800}";
}
);
layerId = "85308D4F-3C98-4E4B-A926-E3A24A251B96";
name = Regular;
paths = (
{
closed = 1;
nodes = (
"70 0 LINE",
"150 0 LINE",
"150 310 LINE",
"420 310 LINE",
"420 390 LINE",
"150 390 LINE",
"150 620 LINE",
"490 620 LINE",
"490 700 LINE",
"70 700 LINE"
);
}
);
width = 560;
}
);
unicode = 0046;
},
{
glyphname = G;
lastChange = "2014-04-21 02:42:11 -0800";
layers = (
{
anchors = (
{
name = bottom;
position = "{260, 0}";
},
{
name = top;
position = "{260, 700}";
}
);
guideLines = (
{
angle = 90;
position = "{70, 800}";
},
{
angle = 90;
position = "{490, 800}";
},
{
angle = 90;
position = "{280, 800}";
},
{
position = "{10, 350}";
}
);
layerId = "85308D4F-3C98-4E4B-A926-E3A24A251B96";
name = Regular;
paths = (
{
closed = 1;
nodes = (
"280 390 LINE",
"280 310 LINE",
"410 310 LINE",
"410 160 OFFCURVE",
"385 80 OFFCURVE",
"280 80 CURVE SMOOTH",
"175 80 OFFCURVE",
"150 160 OFFCURVE",
"150 350 CURVE SMOOTH",
"150 500 OFFCURVE",
"175 620 OFFCURVE",
"280 620 CURVE SMOOTH",
"305 620 OFFCURVE",
"345 615 OFFCURVE",
"413 553 CURVE",
"470 610 LINE",
"385 700 OFFCURVE",
"320 700 OFFCURVE",
"280 700 CURVE SMOOTH",
"115 700 OFFCURVE",
"70 549 OFFCURVE",
"70 350 CURVE SMOOTH",
"70 141 OFFCURVE",
"115 0 OFFCURVE",
"280 0 CURVE SMOOTH",
"445 0 OFFCURVE",
"490 141 OFFCURVE",
"490 310 CURVE",
"490 390 LINE"
);
}
);
width = 560;
}
);
unicode = 0047;
},
{
glyphname = H;
lastChange = "2014-04-21 02:43:36 -0800";
layers = (
{
anchors = (
{
name = center;
position = "{260, 350}";
},
{
name = top;
position = "{260, 700}";
}
);
guideLines = (
{
angle = 90;
position = "{70, 800}";
},
{
angle = 90;
position = "{490, 800}";
},
{
angle = 90;
position = "{280, 800}";
},
{
position = "{10, 350}";
}
);
layerId = "85308D4F-3C98-4E4B-A926-E3A24A251B96";
name = Regular;
paths = (
{
closed = 1;
nodes = (
"70 0 LINE",
"150 0 LINE",
"150 310 LINE",
"410 310 LINE",
"410 0 LINE",
"490 0 LINE",
"490 700 LINE",
"410 700 LINE",
"410 390 LINE",
"150 390 LINE",
"150 700 LINE",
"70 700 LINE"
);
}
);
width = 560;
}
);
unicode = 0048;
},
{
glyphname = I;
lastChange = "2014-04-21 02:43:25 -0800";
layers = (
{
anchors = (
{
name = ogonek;
position = "{468, 10}";
},
{
name = top;
position = "{260, 700}";
}
);
guideLines = (
{
angle = 90;
position = "{280, 800}";
},
{
angle = 90;
position = "{490, 800}";
},
{
angle = 90;
position = "{70, 800}";
}
);
layerId = "85308D4F-3C98-4E4B-A926-E3A24A251B96";
name = Regular;
paths = (
{
closed = 1;
nodes = (
"130 620 LINE",
"240 620 LINE",
"240 80 LINE",
"130 80 LINE",
"130 0 LINE",
"430 0 LINE",
"430 80 LINE",
"320 80 LINE",
"320 620 LINE",
"430 620 LINE",
"430 700 LINE",
"130 700 LINE"
);
}
);
width = 560;
}
);
unicode = 0049;
},
{
glyphname = J;
lastChange = "2014-04-21 02:43:15 -0800";
layers = (
{
anchors = (
{
name = top;
position = "{260, 700}";
}
);
guideLines = (
{
angle = 90;
position = "{70, 800}";
},
{
angle = 90;
position = "{490, 800}";
},
{
angle = 90;
position = "{280, 800}";
},
{
position = "{10, 350}";
}
);
layerId = "85308D4F-3C98-4E4B-A926-E3A24A251B96";
name = Regular;
paths = (
{
closed = 1;
nodes = (
"410 0 OFFCURVE",
"490 105 OFFCURVE",
"490 280 CURVE",
"490 700 LINE",
"410 700 LINE",
"410 280 LINE",
"410 125 OFFCURVE",
"325 80 OFFCURVE",
"260 80 CURVE",
"219 80 OFFCURVE",
"158 101 OFFCURVE",
"122 138 CURVE",
"70 81 LINE",
"117 33 OFFCURVE",
"179 0 OFFCURVE",
"260 0 CURVE"
);
}
);
width = 560;
}
);
unicode = 004A;
},
{
glyphname = K;
lastChange = "2014-04-21 02:42:49 -0800";
layers = (
{
anchors = (
{
name = bottom;
position = "{260, 0}";
},
{
name = top;
position = "{260, 700}";
}
);
guideLines = (
{
angle = 90;
position = "{70, 800}";
},
{
angle = 90;
position = "{490, 800}";
},
{
angle = 90;
position = "{280, 800}";
},
{
position = "{10, 350}";
}
);
layerId = "85308D4F-3C98-4E4B-A926-E3A24A251B96";
name = Regular;
paths = (
{
closed = 1;
nodes = (
"70 0 LINE",
"150 0 LINE",
"150 290 LINE",
"400 0 LINE",
"490 0 LINE",
"200 350 LINE",
"490 700 LINE",
"400 700 LINE",
"150 410 LINE",
"150 700 LINE",
"70 700 LINE"
);
}
);
width = 560;
}
);
unicode = 004B;
},
{
glyphname = L;
lastChange = "2014-04-21 02:44:18 -0800";
layers = (
{
anchors = (
{
name = bottom;
position = "{260, 0}";
},
{
name = top;
position = "{260, 700}";
}
);
guideLines = (
{
angle = 90;
position = "{70, 800}";
},
{
angle = 90;
position = "{490, 800}";
},
{
angle = 90;
position = "{280, 800}";
}
);
layerId = "85308D4F-3C98-4E4B-A926-E3A24A251B96";
name = Regular;
paths = (
{
closed = 1;
nodes = (
"70 0 LINE",
"490 0 LINE",
"490 80 LINE",
"150 80 LINE",
"150 700 LINE",
"70 700 LINE"
);
}
);
width = 560;
}
);
unicode = 004C;
},
{
glyphname = M;
lastChange = "2014-04-21 02:44:15 -0800";
layers = (
{
guideLines = (
{
angle = 90;
position = "{70, 800}";
},
{
angle = 90;
position = "{490, 800}";
},
{
angle = 90;
position = "{280, 800}";
},
{
position = "{10, 350}";
}
);
layerId = "85308D4F-3C98-4E4B-A926-E3A24A251B96";
name = Regular;
paths = (
{
closed = 1;
nodes = (
"150 0 LINE",
"150 440 LINE",
"240 190 LINE",
"320 190 LINE",
"410 440 LINE",
"410 0 LINE",
"490 0 LINE",
"490 700 LINE",
"410 700 LINE",
"280 310 LINE",
"150 700 LINE",
"70 700 LINE",
"70 0 LINE"
);
}
);
width = 560;
}
);
unicode = 004D;
},
{
glyphname = N;
lastChange = "2014-04-21 02:44:10 -0800";
layers = (
{
anchors = (
{
name = bottom;
position = "{260, 0}";
},
{
name = top;
position = "{260, 700}";
}
);
guideLines = (
{
angle = 90;
position = "{70, 800}";
},
{
angle = 90;
position = "{490, 800}";
},
{
angle = 90;
position = "{280, 800}";
}
);
layerId = "85308D4F-3C98-4E4B-A926-E3A24A251B96";
name = Regular;
paths = (
{
closed = 1;
nodes = (
"150 0 LINE",
"150 520 LINE",
"410 0 LINE",
"490 0 LINE",
"490 700 LINE",
"410 700 LINE",
"410 180 LINE",
"150 700 LINE",
"70 700 LINE",
"70 0 LINE"
);
}
);
width = 560;
}
);
unicode = 004E;
},
{
glyphname = O;
lastChange = "2014-04-21 02:45:04 -0800";
layers = (
{
anchors = (
{
name = top;
position = "{260, 700}";
}
);
guideLines = (
{
angle = 90;
position = "{70, 800}";
},
{
angle = 90;
position = "{490, 800}";
},
{
angle = 90;
position = "{280, 800}";
},
{
position = "{-40, 350}";
}
);
layerId = "85308D4F-3C98-4E4B-A926-E3A24A251B96";
name = Regular;
paths = (
{
closed = 1;
nodes = (
"400 0 OFFCURVE",
"505 110 OFFCURVE",
"505 350 CURVE SMOOTH",
"505 590 OFFCURVE",
"400 700 OFFCURVE",
"280 700 CURVE SMOOTH",
"160 700 OFFCURVE",
"55 590 OFFCURVE",
"55 350 CURVE SMOOTH",
"55 110 OFFCURVE",
"160 0 OFFCURVE",
"280 0 CURVE SMOOTH"
);
},
{
closed = 1;
nodes = (
"200 80 OFFCURVE",
"135 190 OFFCURVE",
"135 350 CURVE SMOOTH",
"135 510 OFFCURVE",
"200 620 OFFCURVE",
"280 620 CURVE SMOOTH",
"360 620 OFFCURVE",
"425 510 OFFCURVE",
"425 350 CURVE SMOOTH",
"425 190 OFFCURVE",
"360 80 OFFCURVE",
"280 80 CURVE SMOOTH"
);
}
);
width = 560;
}
);
unicode = 004F;
},
{
glyphname = P;
lastChange = "2014-04-21 02:44:52 -0800";
layers = (
{
guideLines = (
{
angle = 90;
position = "{70, 800}";
},
{
angle = 90;
position = "{490, 800}";
},
{
angle = 90;
position = "{280, 800}";
}
);
layerId = "85308D4F-3C98-4E4B-A926-E3A24A251B96";
name = Regular;
paths = (
{
closed = 1;
nodes = (
"150 390 LINE",
"150 620 LINE",
"230 620 LINE",
"410 620 OFFCURVE",
"410 530 OFFCURVE",
"410 500 CURVE",
"410 470 OFFCURVE",
"410 390 OFFCURVE",
"230 390 CURVE"
);
},
{
closed = 1;
nodes = (
"230 310 LINE",
"445 311 OFFCURVE",
"490 400 OFFCURVE",
"490 500 CURVE SMOOTH",
"490 600 OFFCURVE",
"445 700 OFFCURVE",
"230 700 CURVE",
"70 700 LINE",
"70 0 LINE",
"150 0 LINE",
"150 310 LINE"
);
}
);
width = 560;
}
);
unicode = 0050;
},
{
glyphname = Q;
lastChange = "2014-04-21 02:44:45 -0800";
layers = (
{
guideLines = (
{
angle = 90;
position = "{70, 800}";
},
{
angle = 90;
position = "{490, 800}";
},
{
angle = 90;
position = "{280, 800}";
},
{
position = "{10, 350}";
}
);
layerId = "85308D4F-3C98-4E4B-A926-E3A24A251B96";
name = Regular;
paths = (
{
closed = 1;
nodes = (
"368 16 OFFCURVE",
"325 0 OFFCURVE",
"280 0 CURVE SMOOTH",
"160 0 OFFCURVE",
"55 110 OFFCURVE",
"55 350 CURVE SMOOTH",
"55 590 OFFCURVE",
"160 700 OFFCURVE",
"280 700 CURVE SMOOTH",
"400 700 OFFCURVE",
"505 590 OFFCURVE",
"505 350 CURVE SMOOTH",
"505 247 OFFCURVE",
"486 168 OFFCURVE",
"454 112 CURVE",
"522 30 LINE",
"462 -20 LINE",
"404 48 LINE"
);
},
{
closed = 1;
nodes = (
"270 210 LINE",
"330 260 LINE",
"395 182 LINE",
"414 227 OFFCURVE",
"425 284 OFFCURVE",
"425 350 CURVE SMOOTH",
"425 510 OFFCURVE",
"360 620 OFFCURVE",
"280 620 CURVE SMOOTH",
"200 620 OFFCURVE",
"135 510 OFFCURVE",
"135 350 CURVE SMOOTH",
"135 190 OFFCURVE",
"200 80 OFFCURVE",
"280 80 CURVE SMOOTH",
"306 80 OFFCURVE",
"330 92 OFFCURVE",
"352 113 CURVE"
);
}
);
width = 560;
}
);
unicode = 0051;
},
{
glyphname = R;
lastChange = "2014-04-21 02:45:51 -0800";
layers = (
{
anchors = (
{
name = bottom;
position = "{260, 0}";
},
{
name = top;
position = "{260, 700}";
}
);
guideLines = (
{
angle = 90;
position = "{70, 800}";
},
{
angle = 90;
position = "{490, 800}";
},
{
angle = 90;
position = "{280, 800}";
},
{
position = "{10, 350}";
}
);
layerId = "85308D4F-3C98-4E4B-A926-E3A24A251B96";
name = Regular;
paths = (
{
closed = 1;
nodes = (
"150 390 LINE",
"150 620 LINE",
"260 620 LINE",
"380 620 OFFCURVE",
"410 570 OFFCURVE",
"410 500 CURVE",
"410 430 OFFCURVE",
"380 390 OFFCURVE",
"220 390 CURVE"
);
},
{
closed = 1;
nodes = (
"350 323 LINE",
"380 324 OFFCURVE",
"490 370 OFFCURVE",
"490 500 CURVE SMOOTH",
"490 630 OFFCURVE",
"415 700 OFFCURVE",
"260 700 CURVE",
"70 700 LINE",
"70 0 LINE",
"150 0 LINE",
"150 310 LINE",
"270 310 LINE",
"400 0 LINE",
"490 0 LINE"
);
},
{
closed = 0;
nodes = (
"220 390 LINE"
);
}
);
width = 560;
}
);
unicode = 0052;
},
{
glyphname = S;
lastChange = "2014-04-21 02:45:38 -0800";
layers = (
{
anchors = (
{
name = bottom;
position = "{260, 0}";
},
{
name = top;
position = "{260, 700}";
}
);
guideLines = (
{
angle = 90;
position = "{70, 800}";
},
{
angle = 90;
position = "{490, 800}";
},
{
angle = 90;
position = "{280, 800}";
},
{
position = "{10, 350}";
}
);
layerId = "85308D4F-3C98-4E4B-A926-E3A24A251B96";
name = Regular;
paths = (
{
closed = 1;
nodes = (
"410 260 OFFCURVE",
"390 310 OFFCURVE",
"280 310 CURVE SMOOTH",
"170 310 OFFCURVE",
"70 360 OFFCURVE",
"70 505 CURVE",
"70 650 OFFCURVE",
"215 700 OFFCURVE",
"280 700 CURVE SMOOTH",
"320 700 OFFCURVE",
"395 700 OFFCURVE",
"490 610 CURVE",
"433 553 LINE",
"365 615 OFFCURVE",
"305 620 OFFCURVE",
"280 620 CURVE SMOOTH",
"225 620 OFFCURVE",
"150 575 OFFCURVE",
"150 505 CURVE SMOOTH",
"150 440 OFFCURVE",
"170 390 OFFCURVE",
"280 390 CURVE SMOOTH",
"390 390 OFFCURVE",
"490 340 OFFCURVE",
"490 195 CURVE",
"490 52 OFFCURVE",
"355 0 OFFCURVE",
"280 0 CURVE SMOOTH",
"240 0 OFFCURVE",
"165 0 OFFCURVE",
"70 90 CURVE",
"127 147 LINE",
"195 85 OFFCURVE",
"255 80 OFFCURVE",
"280 80 CURVE SMOOTH",
"342 80 OFFCURVE",
"410 125 OFFCURVE",
"410 195 CURVE"
);
}
);
width = 560;
}
);
unicode = 0053;
},
{
glyphname = T;
lastChange = "2014-04-21 02:45:30 -0800";
layers = (
{
anchors = (
{
name = bottom;
position = "{260, 0}";
},
{
name = center;
position = "{260, 350}";
},
{
name = top;
position = "{260, 700}";
}
);
guideLines = (
{
angle = 90;
position = "{70, 800}";
},
{
angle = 90;
position = "{490, 800}";
},
{
angle = 90;
position = "{280, 800}";
},
{
position = "{10, 350}";
}
);
layerId = "85308D4F-3C98-4E4B-A926-E3A24A251B96";
name = Regular;
paths = (
{
closed = 1;
nodes = (
"70 620 LINE",
"240 620 LINE",
"240 0 LINE",
"320 0 LINE",
"320 620 LINE",
"490 620 LINE",
"490 700 LINE",
"70 700 LINE"
);
}
);
width = 560;
}
);
unicode = 0054;
},
{
glyphname = U;
lastChange = "2014-04-21 02:46:50 -0800";
layers = (
{
anchors = (
{
name = ogonek;
position = "{468, 10}";
},
{
name = top;
position = "{260, 700}";
}
);
guideLines = (
{
angle = 90;
position = "{70, 800}";
},
{
angle = 90;
position = "{490, 800}";
},
{
angle = 90;
position = "{280, 800}";
},
{
position = "{10, 350}";
}
);
layerId = "85308D4F-3C98-4E4B-A926-E3A24A251B96";
name = Regular;
paths = (
{
closed = 1;
nodes = (
"430 0 OFFCURVE",
"490 125 OFFCURVE",
"490 280 CURVE",
"490 700 LINE",
"410 700 LINE",
"410 280 LINE",
"410 135 OFFCURVE",
"345 80 OFFCURVE",
"280 80 CURVE",
"215 80 OFFCURVE",
"150 125 OFFCURVE",
"150 280 CURVE",
"150 700 LINE",
"70 700 LINE",
"70 280 LINE",
"70 115 OFFCURVE",
"130 0 OFFCURVE",
"280 0 CURVE"
);
}
);
width = 560;
}
);
unicode = 0055;
},
{
glyphname = V;
lastChange = "2014-04-21 02:46:41 -0800";
layers = (
{
guideLines = (
{
angle = 90;
position = "{70, 800}";
},
{
angle = 90;
position = "{490, 800}";
},
{
angle = 90;
position = "{280, 800}";
}
);
layerId = "85308D4F-3C98-4E4B-A926-E3A24A251B96";
name = Regular;
paths = (
{
closed = 1;
nodes = (
"240 0 LINE",
"320 0 LINE",
"490 700 LINE",
"410 700 LINE",
"280 140 LINE",
"150 700 LINE",
"70 700 LINE"
);
}
);
width = 560;
}
);
unicode = 0056;
},
{
glyphname = W;
lastChange = "2014-04-21 02:46:33 -0800";
layers = (
{
anchors = (
{
name = top;
position = "{260, 700}";
}
);
guideLines = (
{
angle = 90;
position = "{70, 800}";
},
{
angle = 90;
position = "{490, 800}";
},
{
angle = 90;
position = "{280, 800}";
},
{
position = "{10, 350}";
}
);
layerId = "85308D4F-3C98-4E4B-A926-E3A24A251B96";
name = Regular;
paths = (
{
closed = 1;
nodes = (
"125 0 LINE",
"205 0 LINE",
"280 440 LINE",
"355 0 LINE",
"435 0 LINE",
"510 700 LINE",
"430 700 LINE",
"385 260 LINE",
"320 700 LINE",
"240 700 LINE",
"175 260 LINE",
"130 700 LINE",
"50 700 LINE"
);
}
);
width = 560;
}
);
unicode = 0057;
},
{
glyphname = X;
lastChange = "2014-04-21 02:46:24 -0800";
layers = (
{
guideLines = (
{
angle = 90;
position = "{70, 800}";
},
{
angle = 90;
position = "{490, 800}";
},
{
angle = 90;
position = "{280, 800}";
},
{
position = "{10, 350}";
}
);
layerId = "85308D4F-3C98-4E4B-A926-E3A24A251B96";
name = Regular;
paths = (
{
closed = 1;
nodes = (
"160 700 LINE",
"280 430 LINE",
"400 700 LINE",
"490 700 LINE",
"330 350 LINE",
"490 0 LINE",
"400 0 LINE",
"280 270 LINE",
"160 0 LINE",
"70 0 LINE",
"230 350 LINE",
"70 700 LINE"
);
}
);
width = 560;
}
);
unicode = 0058;
},
{
glyphname = Y;
lastChange = "2014-04-21 02:48:03 -0800";
layers = (
{
anchors = (
{
name = top;
position = "{260, 700}";
}
);
guideLines = (
{
angle = 90;
position = "{70, 800}";
},
{
angle = 90;
position = "{490, 800}";
},
{
angle = 90;
position = "{280, 800}";
},
{
position = "{10, 350}";
}
);
layerId = "85308D4F-3C98-4E4B-A926-E3A24A251B96";
name = Regular;
paths = (
{
closed = 1;
nodes = (
"240 320 LINE",
"240 0 LINE",
"320 0 LINE",
"320 320 LINE",
"490 700 LINE",
"410 700 LINE",
"280 420 LINE",
"150 700 LINE",
"70 700 LINE"
);
}
);
width = 560;
}
);
unicode = 0059;
},
{
glyphname = Z;
lastChange = "2014-04-21 02:47:54 -0800";
layers = (
{
anchors = (
{
name = top;
position = "{260, 700}";
}
);
guideLines = (
{
angle = 90;
position = "{70, 800}";
},
{
angle = 90;
position = "{490, 800}";
},
{
angle = 90;
position = "{280, 800}";
},
{
position = "{10, 350}";
}
);
layerId = "85308D4F-3C98-4E4B-A926-E3A24A251B96";
name = Regular;
paths = (
{
closed = 1;
nodes = (
"70 620 LINE",
"400 620 LINE",
"70 80 LINE",
"70 0 LINE",
"490 0 LINE",
"490 80 LINE",
"160 80 LINE",
"490 619 LINE",
"490 700 LINE",
"70 700 LINE"
);
}
);
width = 560;
}
);
unicode = 005A;
},
{
glyphname = a;
lastChange = "2014-04-21 02:47:44 -0800";
layers = (
{
anchors = (
{
name = ogonek;
position = "{468, 10}";
},
{
name = top;
position = "{260, 500}";
}
);
background = {
paths = (
{
closed = 1;
nodes = (
"702 563 LINE",
"641 563 LINE SMOOTH",
"426 563 OFFCURVE",
"317 487 OFFCURVE",
"317 338 CURVE SMOOTH",
"317 203 OFFCURVE",
"403 125 OFFCURVE",
"547 125 CURVE SMOOTH",
"750 125 OFFCURVE",
"873 274 OFFCURVE",
"874 522 CURVE SMOOTH",
"874 563 LINE"
);
},
{
closed = 1;
nodes = (
"1059 0 LINE",
"874 0 LINE",
"874 166 LINE",
"795 33 OFFCURVE",
"679 -29 OFFCURVE",
"508 -29 CURVE SMOOTH",
"280 -29 OFFCURVE",
"133 110 OFFCURVE",
"133 326 CURVE SMOOTH",
"133 575 OFFCURVE",
"303 707 OFFCURVE",
"627 707 CURVE SMOOTH",
"874 707 LINE",
"874 736 LINE",
"873 915 OFFCURVE",
"788 991 OFFCURVE",
"592 991 CURVE SMOOTH",
"467 991 OFFCURVE",
"336 954 OFFCURVE",
"215 885 CURVE",
"215 1069 LINE",
"351 1121 OFFCURVE",
"475 1147 OFFCURVE",
"592 1147 CURVE SMOOTH",
"777 1147 OFFCURVE",
"908 1092 OFFCURVE",
"989 983 CURVE SMOOTH",
"1040 916 OFFCURVE",
"1059 835 OFFCURVE",
"1059 639 CURVE SMOOTH"
);
}
);
};
guideLines = (
{
angle = 90;
position = "{280, 800}";
},
{
position = "{-40, 250}";
},
{
angle = 90;
position = "{70, 800}";
},
{
angle = 90;
position = "{490, 800}";
},
{
position = "{-40, 250}";
}
);
layerId = "85308D4F-3C98-4E4B-A926-E3A24A251B96";
name = Regular;
paths = (
{
closed = 1;
nodes = (
"410 0 LINE",
"490 0 LINE",
"490 346 LINE SMOOTH",
"490 425 OFFCURVE",
"435 500 OFFCURVE",
"299 500 CURVE",
"237 500 OFFCURVE",
"160 484 OFFCURVE",
"101 436 CURVE",
"146 368 LINE",
"266 449 OFFCURVE",
"410 420 OFFCURVE",
"410 338 CURVE",
"410 274 LINE",
"410 274 OFFCURVE",
"376 310 OFFCURVE",
"280 310 CURVE SMOOTH",
"173 310 OFFCURVE",
"70 265 OFFCURVE",
"70 150 CURVE SMOOTH",
"70 35 OFFCURVE",
"173 -10 OFFCURVE",
"280 -10 CURVE SMOOTH",
"376 -10 OFFCURVE",
"410 37 OFFCURVE",
"410 37 CURVE"
);
},
{
closed = 1;
nodes = (
"201 70 OFFCURVE",
"150 93 OFFCURVE",
"150 150 CURVE SMOOTH",
"150 206 OFFCURVE",
"201 230 OFFCURVE",
"280 230 CURVE SMOOTH",
"359 230 OFFCURVE",
"410 206 OFFCURVE",
"410 150 CURVE SMOOTH",
"410 93 OFFCURVE",
"359 70 OFFCURVE",
"280 70 CURVE SMOOTH"
);
}
);
width = 560;
}
);
unicode = 0061;
},
{
glyphname = b;
lastChange = "2014-04-21 02:47:26 -0800";
layers = (
{
guideLines = (
{
angle = 90;
position = "{70, 800}";
},
{
angle = 90;
position = "{490, 800}";
},
{
angle = 90;
position = "{280, 800}";
},
{
position = "{10, 250}";
}
);
layerId = "85308D4F-3C98-4E4B-A926-E3A24A251B96";
name = Regular;
paths = (
{
closed = 0;
nodes = (
"70 250 LINE"
);
},
{
closed = 1;
nodes = (
"210 80 OFFCURVE",
"150 150 OFFCURVE",
"150 250 CURVE SMOOTH",
"150 350 OFFCURVE",
"210 420 OFFCURVE",
"280 420 CURVE SMOOTH",
"350 420 OFFCURVE",
"410 350 OFFCURVE",
"410 250 CURVE",
"410 150 OFFCURVE",
"350 80 OFFCURVE",
"280 80 CURVE SMOOTH"
);
},
{
closed = 1;
nodes = (
"185 12 OFFCURVE",
"227 0 OFFCURVE",
"280 0 CURVE SMOOTH",
"404 0 OFFCURVE",
"490 101 OFFCURVE",
"490 250 CURVE SMOOTH",
"490 399 OFFCURVE",
"404 500 OFFCURVE",
"280 500 CURVE SMOOTH",
"229 500 OFFCURVE",
"184 483 OFFCURVE",
"150 452 CURVE",
"150 700 LINE",
"70 700 LINE",
"70 0 LINE",
"150 0 LINE",
"150 45 LINE"
);
}
);
width = 560;
}
);
unicode = 0062;
},
{
glyphname = c;
lastChange = "2014-04-21 02:49:10 -0800";
layers = (
{
anchors = (
{
name = bottom;
position = "{260, 0}";
},
{
name = top;
position = "{260, 500}";
}
);
guideLines = (
{
angle = 90;
position = "{280, 800}";
},
{
position = "{-40, 250}";
},
{
angle = 90;
position = "{70, 800}";
},
{
angle = 90;
position = "{490, 800}";
}
);
layerId = "85308D4F-3C98-4E4B-A926-E3A24A251B96";
name = Regular;
paths = (
{
closed = 1;
nodes = (
"433 147 LINE",
"365 85 OFFCURVE",
"325 80 OFFCURVE",
"300 80 CURVE SMOOTH",
"235 80 OFFCURVE",
"150 150 OFFCURVE",
"150 250 CURVE SMOOTH",
"150 350 OFFCURVE",
"235 420 OFFCURVE",
"300 420 CURVE SMOOTH",
"325 420 OFFCURVE",
"365 415 OFFCURVE",
"433 353 CURVE",
"490 410 LINE",
"405 500 OFFCURVE",
"340 500 OFFCURVE",
"300 500 CURVE SMOOTH",
"175 500 OFFCURVE",
"70 399 OFFCURVE",
"70 250 CURVE SMOOTH",
"70 101 OFFCURVE",
"175 0 OFFCURVE",
"300 0 CURVE SMOOTH",
"340 0 OFFCURVE",
"405 0 OFFCURVE",
"490 90 CURVE"
);
}
);
width = 560;
}
);
unicode = 0063;
},
{
glyphname = d;
lastChange = "2014-04-21 02:49:01 -0800";
layers = (
{
anchors = (
{
name = center;
position = "{260, 250}";
}
);
guideLines = (
{
angle = 90;
position = "{70, 800}";
},
{
angle = 90;
position = "{490, 800}";
},
{
angle = 90;
position = "{280, 800}";
}
);
layerId = "85308D4F-3C98-4E4B-A926-E3A24A251B96";
name = Regular;
paths = (
{
closed = 0;
nodes = (
"490 250 LINE"
);
},
{
closed = 1;
nodes = (
"210 80 OFFCURVE",
"150 150 OFFCURVE",
"150 250 CURVE",
"150 350 OFFCURVE",
"210 420 OFFCURVE",
"280 420 CURVE SMOOTH",
"350 420 OFFCURVE",
"410 350 OFFCURVE",
"410 250 CURVE SMOOTH",
"410 150 OFFCURVE",
"350 80 OFFCURVE",
"280 80 CURVE SMOOTH"
);
},
{
closed = 1;
nodes = (
"410 0 LINE",
"490 0 LINE",
"490 700 LINE",
"410 700 LINE",
"410 452 LINE",
"376 483 OFFCURVE",
"331 500 OFFCURVE",
"280 500 CURVE SMOOTH",
"156 500 OFFCURVE",
"70 399 OFFCURVE",
"70 250 CURVE SMOOTH",
"70 101 OFFCURVE",
"156 0 OFFCURVE",
"280 0 CURVE SMOOTH",
"333 0 OFFCURVE",
"375 12 OFFCURVE",
"410 45 CURVE"
);
}
);
width = 560;
}
);
unicode = 0064;
},
{
glyphname = e;
lastChange = "2014-04-21 02:48:55 -0800";
layers = (
{
anchors = (
{
name = bottom;
position = "{260, 0}";
},
{
name = ogonek;
position = "{468, 10}";
},
{
name = top;
position = "{260, 500}";
}
);
guideLines = (
{
angle = 90;
position = "{70, 800}";
},
{
angle = 90;
position = "{490, 800}";
},
{
angle = 90;
position = "{280, 800}";
},
{
position = "{10, 250}";
}
);
layerId = "85308D4F-3C98-4E4B-A926-E3A24A251B96";
name = Regular;
paths = (
{
closed = 1;
nodes = (
"161 376 OFFCURVE",
"210 420 OFFCURVE",
"280 420 CURVE SMOOTH",
"350 420 OFFCURVE",
"400 380 OFFCURVE",
"407 310 CURVE",
"152 310 LINE"
);
},
{
closed = 1;
nodes = (
"493 230 LINE",
"494 230 OFFCURVE",
"494 235 OFFCURVE",
"495 250 CURVE",
"495 399 OFFCURVE",
"405 500 OFFCURVE",
"280 500 CURVE SMOOTH",
"155 500 OFFCURVE",
"65 399 OFFCURVE",
"65 250 CURVE",
"65 101 OFFCURVE",
"156 0 OFFCURVE",
"280 0 CURVE SMOOTH",
"367 0 OFFCURVE",
"400 0 OFFCURVE",
"482 56 CURVE",
"428 119 LINE",
"383 87 OFFCURVE",
"350 80 OFFCURVE",
"280 80 CURVE SMOOTH",
"212 80 OFFCURVE",
"146 145 OFFCURVE",
"146 230 CURVE"
);
}
);
width = 560;
}
);
unicode = 0065;
},
{
glyphname = f;
lastChange = "2014-04-21 02:49:21 -0800";
layers = (
{
guideLines = (
{
angle = 90;
position = "{65, 800}";
},
{
angle = 90;
position = "{490, 800}";
},
{
angle = 90;
position = "{280, 800}";
},
{
position = "{5, 250}";
},
{
position = "{0, 350}";
}
);
layerId = "85308D4F-3C98-4E4B-A926-E3A24A251B96";
name = Regular;
paths = (
{
closed = 1;
nodes = (
"275 420 LINE",
"465 420 LINE",
"465 500 LINE",
"275 500 LINE",
"275 520 LINE",
"275 647 OFFCURVE",
"410 653 OFFCURVE",
"500 653 CURVE",
"457 730 LINE",
"329 730 OFFCURVE",
"195 678 OFFCURVE",
"195 520 CURVE",
"195 500 LINE",
"65 500 LINE",
"65 420 LINE",
"195 420 LINE",
"195 0 LINE",
"275 0 LINE"
);
}
);
width = 560;
}
);
unicode = 0066;
},
{
glyphname = g;
lastChange = "2014-04-21 02:48:48 -0800";
layers = (
{
anchors = (
{
name = top;
position = "{260, 500}";
}
);
guideLines = (
{
angle = 90;
position = "{70, 800}";
},
{
angle = 90;
position = "{490, 800}";
},
{
angle = 90;
position = "{280, 800}";
},
{
position = "{10, 250}";
},
{
position = "{10, -180}";
}
);
layerId = "85308D4F-3C98-4E4B-A926-E3A24A251B96";
name = Regular;
paths = (
{
closed = 0;
nodes = (
"490 250 LINE"
);
},
{
closed = 1;
nodes = (
"210 80 OFFCURVE",
"150 150 OFFCURVE",
"150 250 CURVE",
"150 350 OFFCURVE",
"210 420 OFFCURVE",
"280 420 CURVE SMOOTH",
"350 420 OFFCURVE",
"410 350 OFFCURVE",
"410 250 CURVE SMOOTH",
"410 150 OFFCURVE",
"350 80 OFFCURVE",
"280 80 CURVE SMOOTH"
);
},
{
closed = 1;
nodes = (
"410 -62 OFFCURVE",
"362 -110 OFFCURVE",
"280 -110 CURVE SMOOTH",
"200 -110 OFFCURVE",
"146 -85 OFFCURVE",
"124 -65 CURVE",
"69 -125 LINE",
"226 -220 OFFCURVE",
"490 -237 OFFCURVE",
"490 50 CURVE",
"490 500 LINE",
"410 500 LINE",
"410 452 LINE",
"376 483 OFFCURVE",
"331 500 OFFCURVE",
"280 500 CURVE SMOOTH",
"156 500 OFFCURVE",
"70 399 OFFCURVE",
"70 250 CURVE SMOOTH",
"70 101 OFFCURVE",
"156 0 OFFCURVE",
"280 0 CURVE SMOOTH",
"333 0 OFFCURVE",
"375 12 OFFCURVE",
"410 45 CURVE"
);
}
);
width = 560;
}
);
unicode = 0067;
},
{
glyphname = h;
lastChange = "2014-04-21 02:48:40 -0800";
layers = (
{
anchors = (
{
name = center;
position = "{260, 250}";
},
{
name = top;
position = "{260, 500}";
}
);
guideLines = (
{
angle = 90;
position = "{70, 800}";
},
{
angle = 90;
position = "{490, 800}";
},
{
angle = 90;
position = "{280, 800}";
},
{
position = "{-40, 250}";
},
{
position = "{-40, 440}";
}
);
layerId = "85308D4F-3C98-4E4B-A926-E3A24A251B96";
name = Regular;
paths = (
{
closed = 0;
nodes = (
"70 250 LINE"
);
},
{
closed = 1;
nodes = (
"490 250 LINE",
"490 395 OFFCURVE",
"440 500 OFFCURVE",
"300 500 CURVE SMOOTH",
"200 500 OFFCURVE",
"150 410 OFFCURVE",
"150 410 CURVE",
"150 700 LINE",
"70 700 LINE",
"70 0 LINE",
"150 0 LINE",
"150 230 LINE",
"150 350 OFFCURVE",
"245 420 OFFCURVE",
"300 420 CURVE SMOOTH",
"355 420 OFFCURVE",
"410 395 OFFCURVE",
"410 250 CURVE",
"410 0 LINE",
"490 0 LINE"
);
}
);
width = 560;
}
);
unicode = 0068;
},
{
glyphname = i;
lastChange = "2014-04-21 02:50:44 -0800";
layers = (
{
guideLines = (
{
angle = 90;
position = "{280, 800}";
},
{
position = "{0, 250}";
},
{
angle = 90;
position = "{70, 800}";
},
{
angle = 90;
position = "{490, 800}";
}
);
layerId = "85308D4F-3C98-4E4B-A926-E3A24A251B96";
name = Regular;
paths = (
{
closed = 1;
nodes = (
"350 590 OFFCURVE",
"375 615 OFFCURVE",
"375 645 CURVE SMOOTH",
"375 675 OFFCURVE",
"350 700 OFFCURVE",
"320 700 CURVE SMOOTH",
"290 700 OFFCURVE",
"265 675 OFFCURVE",
"265 645 CURVE SMOOTH",
"265 615 OFFCURVE",
"290 590 OFFCURVE",
"320 590 CURVE SMOOTH"
);
},
{
closed = 1;
nodes = (
"140 420 LINE",
"280 420 LINE",
"280 0 LINE",
"360 0 LINE",
"360 500 LINE",
"140 500 LINE"
);
}
);
width = 560;
}
);
unicode = 0069;
},
{
glyphname = j;
lastChange = "2014-04-21 02:50:35 -0800";
layers = (
{
guideLines = (
{
position = "{-40, 250}";
},
{
angle = 90;
position = "{70, 800}";
},
{
angle = 90;
position = "{490, 800}";
},
{
angle = 90;
position = "{280, 800}";
}
);
layerId = "85308D4F-3C98-4E4B-A926-E3A24A251B96";
name = Regular;
paths = (
{
closed = 1;
nodes = (
"240 20 LINE",
"240 -62 OFFCURVE",
"193 -100 OFFCURVE",
"70 -100 CURVE",
"70 -180 LINE",
"258 -180 OFFCURVE",
"320 -130 OFFCURVE",
"320 20 CURVE",
"320 500 LINE",
"240 500 LINE"
);
},
{
closed = 1;
nodes = (
"310 590 OFFCURVE",
"335 615 OFFCURVE",
"335 645 CURVE SMOOTH",
"335 675 OFFCURVE",
"310 700 OFFCURVE",
"280 700 CURVE SMOOTH",
"250 700 OFFCURVE",
"225 675 OFFCURVE",
"225 645 CURVE SMOOTH",
"225 615 OFFCURVE",
"250 590 OFFCURVE",
"280 590 CURVE SMOOTH"
);
}
);
width = 560;
}
);
unicode = 006A;
},
{
glyphname = k;
lastChange = "2014-04-21 02:50:27 -0800";
layers = (
{
anchors = (
{
name = bottom;
position = "{260, 0}";
}
);
guideLines = (
{
angle = 90;
position = "{70, 800}";
},
{
angle = 90;
position = "{490, 800}";
},
{
angle = 90;
position = "{280, 800}";
},
{
position = "{10, 250}";
}
);
layerId = "85308D4F-3C98-4E4B-A926-E3A24A251B96";
name = Regular;
paths = (
{
closed = 1;
nodes = (
"70 0 LINE",
"150 0 LINE",
"150 192 LINE",
"247 262 LINE",
"425 0 LINE",
"490 47 LINE",
"312 309 LINE",
"490 438 LINE",
"440 500 LINE",
"150 290 LINE",
"150 700 LINE",
"70 700 LINE"
);
}
);
width = 560;
}
);
unicode = 006B;
},
{
glyphname = l;
lastChange = "2014-04-21 02:50:58 -0800";
layers = (
{
anchors = (
{
name = bottom;
position = "{260, 0}";
},
{
name = top;
position = "{260, 500}";
},
{
name = topright;
position = "{500, 500}";
}
);
guideLines = (
{
angle = 90;
position = "{70, 800}";
},
{
angle = 90;
position = "{490, 800}";
},
{
angle = 90;
position = "{280, 800}";
},
{
position = "{10, 250}";
}
);
layerId = "85308D4F-3C98-4E4B-A926-E3A24A251B96";
name = Regular;
paths = (
{
closed = 1;
nodes = (
"160 620 LINE",
"280 620 LINE",
"280 0 LINE",
"360 0 LINE",
"360 700 LINE",
"160 700 LINE"
);
}
);
width = 560;
}
);
unicode = 006C;
},
{
glyphname = m;
lastChange = "2014-04-21 02:50:20 -0800";
layers = (
{
guideLines = (
{
angle = 90;
position = "{70, 800}";
},
{
angle = 90;
position = "{490, 800}";
},
{
position = "{-40, 250}";
},
{
angle = 90;
position = "{280, 800}";
}
);
layerId = "85308D4F-3C98-4E4B-A926-E3A24A251B96";
name = Regular;
paths = (
{
closed = 1;
nodes = (
"70 0 LINE",
"150 0 LINE",
"150 210 LINE",
"150 315 OFFCURVE",
"170 410 OFFCURVE",
"205 410 CURVE",
"240 410 OFFCURVE",
"240 355 OFFCURVE",
"240 250 CURVE",
"240 0 LINE",
"320 0 LINE",
"320 250 LINE",
"320 355 OFFCURVE",
"330 410 OFFCURVE",
"365 410 CURVE",
"400 410 OFFCURVE",
"410 355 OFFCURVE",
"410 250 CURVE",
"410 0 LINE",
"490 0 LINE",
"490 250 LINE",
"490 355 OFFCURVE",
"485 500 OFFCURVE",
"365 500 CURVE",
"285 500 OFFCURVE",
"280 430 OFFCURVE",
"280 430 CURVE",
"280 430 OFFCURVE",
"285 500 OFFCURVE",
"205 500 CURVE",
"167 499 OFFCURVE",
"150 445 OFFCURVE",
"150 445 CURVE",
"150 500 LINE",
"70 500 LINE"
);
}
);
width = 560;
}
);
unicode = 006D;
},
{
glyphname = n;
lastChange = "2014-04-21 02:50:09 -0800";
layers = (
{
anchors = (
{
name = bottom;
position = "{260, 0}";
},
{
name = top;
position = "{260, 500}";
}
);
guideLines = (
{
position = "{-40, 440}";
},
{
angle = 90;
position = "{70, 800}";
},
{
angle = 90;
position = "{490, 800}";
},
{
angle = 90;
position = "{280, 800}";
},
{
position = "{-40, 250}";
},
{
angle = 90;
position = "{410, 800}";
}
);
layerId = "85308D4F-3C98-4E4B-A926-E3A24A251B96";
name = Regular;
paths = (
{
closed = 1;
nodes = (
"70 0 LINE",
"150 0 LINE",
"150 230 LINE",
"150 350 OFFCURVE",
"245 420 OFFCURVE",
"300 420 CURVE",
"385 420 OFFCURVE",
"410 395 OFFCURVE",
"410 150 CURVE",
"410 0 LINE",
"490 0 LINE",
"490 150 LINE",
"490 395 OFFCURVE",
"470 500 OFFCURVE",
"300 500 CURVE",
"200 500 OFFCURVE",
"150 410 OFFCURVE",
"150 410 CURVE",
"150 500 LINE",
"70 500 LINE"
);
}
);
width = 560;
}
);
unicode = 006E;
},
{
glyphname = o;
lastChange = "2014-04-21 02:52:15 -0800";
layers = (
{
anchors = (
{
name = top;
position = "{260, 500}";
}
);
guideLines = (
{
position = "{-40, 250}";
},
{
angle = 90;
position = "{70, 800}";
},
{
angle = 90;
position = "{490, 800}";
},
{
angle = 90;
position = "{280, 800}";
}
);
layerId = "85308D4F-3C98-4E4B-A926-E3A24A251B96";
name = Regular;
paths = (
{
closed = 1;
nodes = (
"404 0 OFFCURVE",
"495 101 OFFCURVE",
"495 250 CURVE SMOOTH",
"495 399 OFFCURVE",
"404 500 OFFCURVE",
"280 500 CURVE SMOOTH",
"156 500 OFFCURVE",
"65 399 OFFCURVE",
"65 250 CURVE SMOOTH",
"65 101 OFFCURVE",
"156 0 OFFCURVE",
"280 0 CURVE SMOOTH"
);
},
{
closed = 1;
nodes = (
"210 80 OFFCURVE",
"145 150 OFFCURVE",
"145 250 CURVE SMOOTH",
"145 350 OFFCURVE",
"210 420 OFFCURVE",
"280 420 CURVE SMOOTH",
"350 420 OFFCURVE",
"415 350 OFFCURVE",
"415 250 CURVE",
"415 150 OFFCURVE",
"350 80 OFFCURVE",
"280 80 CURVE SMOOTH"
);
}
);
width = 560;
}
);
unicode = 006F;
},
{
glyphname = p;
lastChange = "2014-04-21 02:52:09 -0800";
layers = (
{
guideLines = (
{
angle = 90;
position = "{70, 800}";
},
{
angle = 90;
position = "{490, 800}";
},
{
angle = 90;
position = "{280, 800}";
},
{
position = "{10, 250}";
}
);
layerId = "85308D4F-3C98-4E4B-A926-E3A24A251B96";
name = Regular;
paths = (
{
closed = 0;
nodes = (
"70 250 LINE"
);
},
{
closed = 1;
nodes = (
"210 80 OFFCURVE",
"150 150 OFFCURVE",
"150 250 CURVE SMOOTH",
"150 350 OFFCURVE",
"210 420 OFFCURVE",
"280 420 CURVE SMOOTH",
"350 420 OFFCURVE",
"410 350 OFFCURVE",
"410 250 CURVE",
"410 150 OFFCURVE",
"350 80 OFFCURVE",
"280 80 CURVE SMOOTH"
);
},
{
closed = 1;
nodes = (
"185 12 OFFCURVE",
"227 0 OFFCURVE",
"280 0 CURVE SMOOTH",
"404 0 OFFCURVE",
"490 101 OFFCURVE",
"490 250 CURVE SMOOTH",
"490 399 OFFCURVE",
"404 500 OFFCURVE",
"280 500 CURVE SMOOTH",
"229 500 OFFCURVE",
"184 483 OFFCURVE",
"150 452 CURVE",
"150 500 LINE",
"70 500 LINE",
"70 -180 LINE",
"150 -180 LINE",
"150 45 LINE"
);
}
);
width = 560;
}
);
unicode = 0070;
},
{
glyphname = q;
lastChange = "2014-04-21 02:52:00 -0800";
layers = (
{
guideLines = (
{
angle = 90;
position = "{490, 800}";
},
{
angle = 90;
position = "{70, 800}";
},
{
angle = 90;
position = "{280, 800}";
},
{
position = "{510, 250}";
},
{
position = "{10, -180}";
}
);
layerId = "85308D4F-3C98-4E4B-A926-E3A24A251B96";
name = Regular;
paths = (
{
closed = 0;
nodes = (
"490 250 LINE"
);
},
{
closed = 1;
nodes = (
"210 80 OFFCURVE",
"150 150 OFFCURVE",
"150 250 CURVE",
"150 350 OFFCURVE",
"210 420 OFFCURVE",
"280 420 CURVE SMOOTH",
"350 420 OFFCURVE",
"410 350 OFFCURVE",
"410 250 CURVE SMOOTH",
"410 150 OFFCURVE",
"350 80 OFFCURVE",
"280 80 CURVE SMOOTH"
);
},
{
closed = 1;
nodes = (
"410 -65 LINE",
"410 -128 OFFCURVE",
"471 -180 OFFCURVE",
"550 -180 CURVE",
"550 -100 LINE",
"491 -100 OFFCURVE",
"490 -60 OFFCURVE",
"490 0 CURVE",
"490 500 LINE",
"410 500 LINE",
"410 452 LINE",
"376 483 OFFCURVE",
"331 500 OFFCURVE",
"280 500 CURVE SMOOTH",
"156 500 OFFCURVE",
"70 399 OFFCURVE",
"70 250 CURVE SMOOTH",
"70 101 OFFCURVE",
"156 0 OFFCURVE",
"280 0 CURVE SMOOTH",
"333 0 OFFCURVE",
"375 12 OFFCURVE",
"410 45 CURVE"
);
}
);
width = 560;
}
);
unicode = 0071;
},
{
glyphname = r;
lastChange = "2014-04-21 02:51:53 -0800";
layers = (
{
anchors = (
{
name = bottom;
position = "{260, 0}";
},
{
name = top;
position = "{260, 500}";
}
);
guideLines = (
{
angle = 90;
position = "{70, 800}";
},
{
angle = 90;
position = "{490, 800}";
},
{
position = "{-40, 250}";
},
{
angle = 90;
position = "{280, 800}";
}
);
layerId = "85308D4F-3C98-4E4B-A926-E3A24A251B96";
name = Regular;
paths = (
{
closed = 1;
nodes = (
"70 0 LINE",
"150 0 LINE",
"150 310 LINE",
"230 440 OFFCURVE",
"385 440 OFFCURVE",
"450 380 CURVE",
"490 460 LINE",
"405 520 OFFCURVE",
"230 530 OFFCURVE",
"150 410 CURVE",
"150 500 LINE",
"70 500 LINE"
);
}
);
width = 560;
}
);
unicode = 0072;
},
{
glyphname = s;
lastChange = "2014-04-21 02:51:45 -0800";
layers = (
{
anchors = (
{
name = bottom;
position = "{260, 0}";
},
{
name = top;
position = "{260, 500}";
}
);
guideLines = (
{
angle = 90;
position = "{70, 800}";
},
{
angle = 90;
position = "{490, 800}";
},
{
angle = 90;
position = "{280, 800}";
},
{
position = "{10, 250}";
}
);
layerId = "85308D4F-3C98-4E4B-A926-E3A24A251B96";
name = Regular;
paths = (
{
closed = 1;
nodes = (
"410 250 OFFCURVE",
"70 170 OFFCURVE",
"70 345 CURVE",
"70 442 OFFCURVE",
"180 500 OFFCURVE",
"280 500 CURVE SMOOTH",
"360 500 OFFCURVE",
"440 466 OFFCURVE",
"490 410 CURVE",
"433 363 LINE",
"340 475 OFFCURVE",
"150 425 OFFCURVE",
"150 355 CURVE SMOOTH",
"150 250 OFFCURVE",
"490 330 OFFCURVE",
"490 155 CURVE",
"490 54 OFFCURVE",
"380 0 OFFCURVE",
"280 0 CURVE SMOOTH",
"200 0 OFFCURVE",
"120 35 OFFCURVE",
"70 90 CURVE",
"127 137 LINE",
"220 25 OFFCURVE",
"410 75 OFFCURVE",
"410 145 CURVE"
);
}
);
width = 560;
}
);
unicode = 0073;
},
{
glyphname = t;
lastChange = "2014-04-21 02:51:36 -0800";
layers = (
{
anchors = (
{
name = bottom;
position = "{260, 0}";
},
{
name = center;
position = "{260, 250}";
}
);
guideLines = (
{
angle = 90;
position = "{70, 800}";
},
{
angle = 90;
position = "{490, 800}";
},
{
angle = 90;
position = "{280, 800}";
},
{
position = "{10, 250}";
}
);
layerId = "85308D4F-3C98-4E4B-A926-E3A24A251B96";
name = Regular;
paths = (
{
closed = 1;
nodes = (
"210 700 LINE",
"210 500 LINE",
"70 500 LINE",
"70 420 LINE",
"210 420 LINE",
"210 250 LINE",
"210 22 OFFCURVE",
"339 0 OFFCURVE",
"447 0 CURVE",
"490 77 LINE",
"400 76 OFFCURVE",
"290 83 OFFCURVE",
"290 250 CURVE",
"290 420 LINE",
"470 420 LINE",
"470 500 LINE",
"290 500 LINE",
"290 700 LINE"
);
}
);
width = 560;
}
);
unicode = 0074;
},
{
glyphname = u;
lastChange = "2014-04-21 02:51:06 -0800";
layers = (
{
anchors = (
{
name = ogonek;
position = "{468, 10}";
},
{
name = top;
position = "{260, 500}";
}
);
guideLines = (
{
angle = 90;
position = "{70, 800}";
},
{
angle = 90;
position = "{490, 800}";
},
{
angle = 90;
position = "{280, 800}";
},
{
position = "{10, 250}";
}
);
layerId = "85308D4F-3C98-4E4B-A926-E3A24A251B96";
name = Regular;
paths = (
{
closed = 1;
nodes = (
"490 500 LINE",
"410 500 LINE",
"410 270 LINE",
"410 150 OFFCURVE",
"315 80 OFFCURVE",
"260 80 CURVE",
"175 80 OFFCURVE",
"150 105 OFFCURVE",
"150 350 CURVE",
"150 500 LINE",
"70 500 LINE",
"70 350 LINE",
"70 105 OFFCURVE",
"90 0 OFFCURVE",
"260 0 CURVE",
"360 0 OFFCURVE",
"410 90 OFFCURVE",
"410 90 CURVE",
"410 0 LINE",
"490 0 LINE"
);
}
);
width = 560;
}
);
unicode = 0075;
},
{
glyphname = v;
lastChange = "2014-04-21 02:53:07 -0800";
layers = (
{
guideLines = (
{
angle = 90;
position = "{70, 800}";
},
{
angle = 90;
position = "{490, 800}";
},
{
angle = 90;
position = "{280, 800}";
},
{
position = "{10, 250}";
}
);
layerId = "85308D4F-3C98-4E4B-A926-E3A24A251B96";
name = Regular;
paths = (
{
closed = 1;
nodes = (
"240 0 LINE",
"320 0 LINE",
"490 500 LINE",
"410 500 LINE",
"280 100 LINE",
"150 500 LINE",
"70 500 LINE"
);
}
);
width = 560;
}
);
unicode = 0076;
},
{
glyphname = w;
lastChange = "2014-04-21 02:53:01 -0800";
layers = (
{
anchors = (
{
name = top;
position = "{260, 500}";
}
);
guideLines = (
{
angle = 90;
position = "{70, 800}";
},
{
angle = 90;
position = "{490, 800}";
},
{
angle = 90;
position = "{280, 800}";
},
{
position = "{10, 250}";
}
);
layerId = "85308D4F-3C98-4E4B-A926-E3A24A251B96";
name = Regular;
paths = (
{
closed = 1;
nodes = (
"145 0 LINE",
"225 0 LINE",
"280 310 LINE",
"335 0 LINE",
"415 0 LINE",
"510 500 LINE",
"430 500 LINE",
"375 190 LINE",
"320 500 LINE",
"240 500 LINE",
"185 190 LINE",
"130 500 LINE",
"50 500 LINE"
);
}
);
width = 560;
}
);
unicode = 0077;
},
{
glyphname = x;
lastChange = "2014-04-21 02:52:54 -0800";
layers = (
{
guideLines = (
{
angle = 90;
position = "{70, 800}";
},
{
angle = 90;
position = "{490, 800}";
},
{
angle = 90;
position = "{280, 800}";
},
{
position = "{10, 250}";
}
);
layerId = "85308D4F-3C98-4E4B-A926-E3A24A251B96";
name = Regular;
paths = (
{
closed = 1;
nodes = (
"160 500 LINE",
"280 310 LINE",
"400 500 LINE",
"490 500 LINE",
"330 250 LINE",
"490 0 LINE",
"400 0 LINE",
"280 190 LINE",
"160 0 LINE",
"70 0 LINE",
"230 250 LINE",
"70 500 LINE"
);
}
);
width = 560;
}
);
unicode = 0078;
},
{
glyphname = y;
lastChange = "2014-04-21 02:52:46 -0800";
layers = (
{
anchors = (
{
name = top;
position = "{260, 500}";
}
);
guideLines = (
{
angle = 90;
position = "{70, 800}";
},
{
angle = 90;
position = "{490, 800}";
},
{
angle = 90;
position = "{280, 800}";
},
{
position = "{10, 250}";
}
);
layerId = "85308D4F-3C98-4E4B-A926-E3A24A251B96";
name = Regular;
paths = (
{
closed = 1;
nodes = (
"240 0 LINE",
"240 -58 OFFCURVE",
"184 -100 OFFCURVE",
"90 -100 CURVE",
"55 -180 LINE",
"266 -180 OFFCURVE",
"288 -96 OFFCURVE",
"320 0 CURVE",
"490 500 LINE",
"410 500 LINE",
"280 100 LINE",
"150 500 LINE",
"70 500 LINE"
);
}
);
width = 560;
}
);
unicode = 0079;
},
{
glyphname = z;
lastChange = "2014-04-21 02:52:40 -0800";
layers = (
{
anchors = (
{
name = top;
position = "{260, 500}";
}
);
guideLines = (
{
angle = 90;
position = "{70, 800}";
},
{
angle = 90;
position = "{490, 800}";
},
{
angle = 90;
position = "{280, 800}";
},
{
position = "{10, 250}";
}
);
layerId = "85308D4F-3C98-4E4B-A926-E3A24A251B96";
name = Regular;
paths = (
{
closed = 1;
nodes = (
"70 420 LINE",
"390 420 LINE",
"70 80 LINE",
"70 0 LINE",
"490 0 LINE",
"490 80 LINE",
"170 80 LINE",
"490 419 LINE",
"490 500 LINE",
"70 500 LINE"
);
}
);
width = 560;
}
);
unicode = 007A;
},
{
glyphname = zero;
lastChange = "2014-04-21 02:35:42 -0800";
layers = (
{
guideLines = (
{
angle = 90;
position = "{70, 800}";
},
{
angle = 90;
position = "{490, 800}";
},
{
angle = 90;
position = "{280, 800}";
},
{
position = "{10, 350}";
}
);
layerId = "85308D4F-3C98-4E4B-A926-E3A24A251B96";
name = Regular;
paths = (
{
closed = 1;
nodes = (
"400 0 OFFCURVE",
"490 130 OFFCURVE",
"490 350 CURVE SMOOTH",
"490 570 OFFCURVE",
"400 700 OFFCURVE",
"280 700 CURVE SMOOTH",
"160 700 OFFCURVE",
"70 570 OFFCURVE",
"70 350 CURVE SMOOTH",
"70 130 OFFCURVE",
"160 0 OFFCURVE",
"280 0 CURVE SMOOTH"
);
},
{
closed = 1;
nodes = (
"210 80 OFFCURVE",
"150 220 OFFCURVE",
"150 350 CURVE SMOOTH",
"150 480 OFFCURVE",
"210 620 OFFCURVE",
"280 620 CURVE SMOOTH",
"350 620 OFFCURVE",
"410 480 OFFCURVE",
"410 350 CURVE SMOOTH",
"410 220 OFFCURVE",
"350 80 OFFCURVE",
"280 80 CURVE SMOOTH"
);
},
{
closed = 1;
nodes = (
"315 285 OFFCURVE",
"345 315 OFFCURVE",
"345 350 CURVE SMOOTH",
"345 385 OFFCURVE",
"315 415 OFFCURVE",
"280 415 CURVE SMOOTH",
"245 415 OFFCURVE",
"215 385 OFFCURVE",
"215 350 CURVE",
"215 315 OFFCURVE",
"245 285 OFFCURVE",
"280 285 CURVE SMOOTH"
);
}
);
width = 560;
}
);
unicode = 0030;
},
{
glyphname = one;
lastChange = "2014-04-21 02:34:55 -0800";
layers = (
{
guideLines = (
{
angle = 90;
position = "{70, 800}";
},
{
angle = 90;
position = "{490, 800}";
},
{
angle = 90;
position = "{280, 800}";
},
{
position = "{10, 250}";
}
);
layerId = "85308D4F-3C98-4E4B-A926-E3A24A251B96";
name = Regular;
paths = (
{
closed = 1;
nodes = (
"380 0 LINE",
"300 0 LINE",
"300 560 LINE",
"300 560 OFFCURVE",
"281 521 OFFCURVE",
"235 494 CURVE",
"186 465 OFFCURVE",
"130 450 OFFCURVE",
"130 450 CURVE",
"130 540 LINE",
"130 540 OFFCURVE",
"166 545 OFFCURVE",
"214 574 CURVE",
"267 605 OFFCURVE",
"300 700 OFFCURVE",
"300 700 CURVE",
"380 700 LINE"
);
}
);
width = 560;
}
);
unicode = 0031;
},
{
glyphname = two;
lastChange = "2014-04-21 02:54:55 -0800";
layers = (
{
guideLines = (
{
angle = 90;
position = "{70, 800}";
},
{
angle = 90;
position = "{490, 800}";
},
{
angle = 90;
position = "{280, 800}";
},
{
position = "{10, 350}";
}
);
layerId = "85308D4F-3C98-4E4B-A926-E3A24A251B96";
name = Regular;
paths = (
{
closed = 1;
nodes = (
"180 600 OFFCURVE",
"210 620 OFFCURVE",
"280 620 CURVE",
"350 620 OFFCURVE",
"410 590 OFFCURVE",
"410 500 CURVE",
"410 380 OFFCURVE",
"70 215 OFFCURVE",
"70 80 CURVE",
"70 0 LINE",
"490 0 LINE",
"490 80 LINE",
"160 80 LINE",
"160 205 OFFCURVE",
"490 330 OFFCURVE",
"490 500 CURVE",
"490 660 OFFCURVE",
"365 700 OFFCURVE",
"280 700 CURVE",
"195 700 OFFCURVE",
"130 660 OFFCURVE",
"70 600 CURVE",
"120 540 LINE"
);
}
);
width = 560;
}
);
unicode = 0032;
},
{
glyphname = three;
lastChange = "2014-04-21 02:53:21 -0800";
layers = (
{
guideLines = (
{
angle = 90;
position = "{70, 800}";
},
{
angle = 90;
position = "{490, 800}";
},
{
angle = 90;
position = "{280, 800}";
},
{
position = "{10, 350}";
}
);
layerId = "85308D4F-3C98-4E4B-A926-E3A24A251B96";
name = Regular;
paths = (
{
closed = 1;
nodes = (
"490 620 LINE",
"490 700 LINE",
"100 700 LINE",
"100 620 LINE",
"380 620 LINE",
"180 420 LINE",
"180 330 LINE",
"212 355 OFFCURVE",
"245 360 OFFCURVE",
"280 360 CURVE SMOOTH",
"345 360 OFFCURVE",
"415 330 OFFCURVE",
"415 230 CURVE SMOOTH",
"415 130 OFFCURVE",
"345 80 OFFCURVE",
"280 80 CURVE SMOOTH",
"255 80 OFFCURVE",
"195 85 OFFCURVE",
"127 147 CURVE",
"70 90 LINE",
"155 0 OFFCURVE",
"240 0 OFFCURVE",
"280 0 CURVE SMOOTH",
"405 0 OFFCURVE",
"495 81 OFFCURVE",
"495 230 CURVE SMOOTH",
"495 379 OFFCURVE",
"381 435 OFFCURVE",
"300 435 CURVE"
);
}
);
width = 560;
}
);
unicode = 0033;
},
{
glyphname = four;
lastChange = "2014-04-21 02:54:47 -0800";
layers = (
{
guideLines = (
{
angle = 90;
position = "{70, 800}";
},
{
angle = 90;
position = "{490, 800}";
},
{
angle = 90;
position = "{280, 800}";
},
{
position = "{10, 350}";
}
);
layerId = "85308D4F-3C98-4E4B-A926-E3A24A251B96";
name = Regular;
paths = (
{
closed = 1;
nodes = (
"70 270 LINE",
"310 700 LINE",
"390 700 LINE",
"390 270 LINE",
"490 270 LINE",
"490 190 LINE",
"390 190 LINE",
"390 0 LINE",
"310 0 LINE",
"310 190 LINE",
"70 190 LINE"
);
},
{
closed = 1;
nodes = (
"160 270 LINE",
"310 270 LINE",
"310 540 LINE"
);
}
);
width = 560;
}
);
unicode = 0034;
},
{
glyphname = five;
lastChange = "2014-04-21 02:54:38 -0800";
layers = (
{
guideLines = (
{
angle = 90;
position = "{70, 800}";
},
{
angle = 90;
position = "{490, 800}";
},
{
angle = 90;
position = "{280, 800}";
},
{
position = "{10, 350}";
}
);
layerId = "85308D4F-3C98-4E4B-A926-E3A24A251B96";
name = Regular;
paths = (
{
closed = 1;
nodes = (
"150 620 LINE",
"490 620 LINE",
"490 700 LINE",
"70 700 LINE",
"70 620 LINE",
"70 380 LINE",
"127 323 LINE",
"195 385 OFFCURVE",
"255 390 OFFCURVE",
"280 390 CURVE SMOOTH",
"345 390 OFFCURVE",
"415 335 OFFCURVE",
"415 235 CURVE SMOOTH",
"415 135 OFFCURVE",
"345 80 OFFCURVE",
"280 80 CURVE SMOOTH",
"255 80 OFFCURVE",
"195 85 OFFCURVE",
"127 147 CURVE",
"70 90 LINE",
"155 0 OFFCURVE",
"240 0 OFFCURVE",
"280 0 CURVE SMOOTH",
"405 0 OFFCURVE",
"495 86 OFFCURVE",
"495 235 CURVE SMOOTH",
"495 384 OFFCURVE",
"405 470 OFFCURVE",
"280 470 CURVE SMOOTH",
"249 470 OFFCURVE",
"170 449 OFFCURVE",
"150 435 CURVE"
);
}
);
width = 560;
}
);
unicode = 0035;
},
{
glyphname = six;
lastChange = "2014-04-21 02:54:31 -0800";
layers = (
{
guideLines = (
{
angle = 90;
position = "{70, 800}";
},
{
angle = 90;
position = "{490, 800}";
},
{
angle = 90;
position = "{280, 800}";
},
{
position = "{10, 350}";
}
);
layerId = "85308D4F-3C98-4E4B-A926-E3A24A251B96";
name = Regular;
paths = (
{
closed = 1;
nodes = (
"384 0 OFFCURVE",
"490 86 OFFCURVE",
"490 215 CURVE SMOOTH",
"490 344 OFFCURVE",
"404 430 OFFCURVE",
"280 430 CURVE SMOOTH",
"176 430 OFFCURVE",
"152 378 OFFCURVE",
"152 379 CURVE SMOOTH",
"170 614 OFFCURVE",
"308 659 OFFCURVE",
"417 601 CURVE",
"471 658 LINE",
"280 769 OFFCURVE",
"70 662 OFFCURVE",
"70 330 CURVE",
"70 215 LINE",
"70 86 OFFCURVE",
"176 0 OFFCURVE",
"280 0 CURVE SMOOTH"
);
},
{
closed = 1;
nodes = (
"220 80 OFFCURVE",
"150 125 OFFCURVE",
"150 215 CURVE SMOOTH",
"150 305 OFFCURVE",
"220 350 OFFCURVE",
"280 350 CURVE SMOOTH",
"340 350 OFFCURVE",
"410 305 OFFCURVE",
"410 215 CURVE",
"410 125 OFFCURVE",
"340 80 OFFCURVE",
"280 80 CURVE SMOOTH"
);
}
);
width = 560;
}
);
unicode = 0036;
},
{
glyphname = seven;
lastChange = "2014-04-21 02:54:22 -0800";
layers = (
{
guideLines = (
{
angle = 90;
position = "{70, 800}";
},
{
angle = 90;
position = "{490, 800}";
},
{
angle = 90;
position = "{280, 800}";
},
{
position = "{10, 350}";
}
);
layerId = "85308D4F-3C98-4E4B-A926-E3A24A251B96";
name = Regular;
paths = (
{
closed = 1;
nodes = (
"160 0 LINE",
"70 0 LINE",
"360 620 LINE",
"70 620 LINE",
"70 700 LINE",
"490 700 LINE"
);
}
);
width = 560;
}
);
unicode = 0037;
},
{
glyphname = eight;
lastChange = "2014-04-21 02:54:15 -0800";
layers = (
{
guideLines = (
{
angle = 90;
position = "{70, 800}";
},
{
angle = 90;
position = "{490, 800}";
},
{
angle = 90;
position = "{280, 800}";
},
{
position = "{10, 350}";
},
{
position = "{10, 195}";
},
{
position = "{10, 505}";
}
);
layerId = "85308D4F-3C98-4E4B-A926-E3A24A251B96";
name = Regular;
paths = (
{
closed = 0;
nodes = (
"280 310 LINE"
);
},
{
closed = 1;
nodes = (
"220 390 OFFCURVE",
"150 425 OFFCURVE",
"150 505 CURVE SMOOTH",
"150 585 OFFCURVE",
"220 620 OFFCURVE",
"280 620 CURVE SMOOTH",
"340 620 OFFCURVE",
"410 585 OFFCURVE",
"410 505 CURVE",
"410 425 OFFCURVE",
"340 390 OFFCURVE",
"280 390 CURVE SMOOTH"
);
},
{
closed = 1;
nodes = (
"220 80 OFFCURVE",
"150 115 OFFCURVE",
"150 195 CURVE SMOOTH",
"150 275 OFFCURVE",
"220 310 OFFCURVE",
"280 310 CURVE SMOOTH",
"340 310 OFFCURVE",
"410 275 OFFCURVE",
"410 195 CURVE",
"410 115 OFFCURVE",
"340 80 OFFCURVE",
"280 80 CURVE SMOOTH"
);
},
{
closed = 1;
nodes = (
"455 383 OFFCURVE",
"490 444 OFFCURVE",
"490 505 CURVE SMOOTH",
"490 634 OFFCURVE",
"384 700 OFFCURVE",
"280 700 CURVE SMOOTH",
"176 700 OFFCURVE",
"70 634 OFFCURVE",
"70 505 CURVE SMOOTH",
"70 445 OFFCURVE",
"105 383 OFFCURVE",
"150 350 CURVE",
"105 318 OFFCURVE",
"70 267 OFFCURVE",
"70 195 CURVE SMOOTH",
"70 66 OFFCURVE",
"176 0 OFFCURVE",
"280 0 CURVE SMOOTH",
"384 0 OFFCURVE",
"490 66 OFFCURVE",
"490 195 CURVE SMOOTH",
"490 269 OFFCURVE",
"455 318 OFFCURVE",
"410 350 CURVE"
);
},
{
closed = 0;
nodes = (
"280 390 LINE"
);
}
);
width = 560;
}
);
unicode = 0038;
},
{
glyphname = nine;
lastChange = "2014-04-21 02:54:07 -0800";
layers = (
{
guideLines = (
{
angle = 90;
position = "{70, 800}";
},
{
angle = 90;
position = "{490, 800}";
},
{
angle = 90;
position = "{280, 800}";
},
{
position = "{10, 350}";
},
{
position = "{10, 350}";
}
);
layerId = "85308D4F-3C98-4E4B-A926-E3A24A251B96";
name = Regular;
paths = (
{
closed = 1;
nodes = (
"176 700 OFFCURVE",
"70 614 OFFCURVE",
"70 485 CURVE SMOOTH",
"70 356 OFFCURVE",
"156 270 OFFCURVE",
"280 270 CURVE SMOOTH",
"384 270 OFFCURVE",
"408 322 OFFCURVE",
"408 321 CURVE SMOOTH",
"390 86 OFFCURVE",
"252 41 OFFCURVE",
"143 99 CURVE",
"89 42 LINE",
"280 -69 OFFCURVE",
"490 38 OFFCURVE",
"490 370 CURVE",
"490 485 LINE",
"490 614 OFFCURVE",
"384 700 OFFCURVE",
"280 700 CURVE SMOOTH"
);
},
{
closed = 1;
nodes = (
"340 620 OFFCURVE",
"410 575 OFFCURVE",
"410 485 CURVE SMOOTH",
"410 395 OFFCURVE",
"340 350 OFFCURVE",
"280 350 CURVE SMOOTH",
"220 350 OFFCURVE",
"150 395 OFFCURVE",
"150 485 CURVE",
"150 575 OFFCURVE",
"220 620 OFFCURVE",
"280 620 CURVE SMOOTH"
);
}
);
width = 560;
}
);
unicode = 0039;
},
{
glyphname = asterisk;
lastChange = "2014-04-21 02:56:25 -0800";
layers = (
{
guideLines = (
{
angle = 90;
position = "{70, 800}";
},
{
angle = 90;
position = "{490, 800}";
},
{
angle = 90;
position = "{280, 800}";
},
{
position = "{10, 250}";
}
);
layerId = "85308D4F-3C98-4E4B-A926-E3A24A251B96";
name = Regular;
paths = (
{
closed = 1;
nodes = (
"320 600 LINE",
"320 430 LINE",
"440 530 LINE",
"490 470 LINE",
"350 350 LINE",
"490 230 LINE",
"440 170 LINE",
"320 270 LINE",
"320 100 LINE",
"240 100 LINE",
"240 270 LINE",
"120 170 LINE",
"70 230 LINE",
"210 350 LINE",
"70 470 LINE",
"120 530 LINE",
"240 430 LINE",
"240 600 LINE"
);
}
);
width = 560;
}
);
unicode = 002A;
},
{
glyphname = backslash;
lastChange = "2014-04-21 02:56:14 -0800";
layers = (
{
guideLines = (
{
angle = 90;
position = "{70, 800}";
},
{
angle = 90;
position = "{490, 800}";
},
{
angle = 90;
position = "{280, 800}";
}
);
layerId = "85308D4F-3C98-4E4B-A926-E3A24A251B96";
name = Regular;
paths = (
{
closed = 1;
nodes = (
"160 780 LINE",
"480 -80 LINE",
"400 -80 LINE",
"80 780 LINE"
);
}
);
width = 560;
}
);
unicode = 005C;
},
{
glyphname = colon;
lastChange = "2014-04-21 02:56:07 -0800";
layers = (
{
guideLines = (
{
angle = 90;
position = "{70, 800}";
},
{
angle = 90;
position = "{490, 800}";
},
{
angle = 90;
position = "{280, 800}";
},
{
position = "{10, 350}";
}
);
layerId = "85308D4F-3C98-4E4B-A926-E3A24A251B96";
name = Regular;
paths = (
{
closed = 1;
nodes = (
"227 500 OFFCURVE",
"190 453 OFFCURVE",
"190 410 CURVE SMOOTH",
"190 367 OFFCURVE",
"227 320 OFFCURVE",
"280 320 CURVE SMOOTH",
"333 320 OFFCURVE",
"370 367 OFFCURVE",
"370 410 CURVE SMOOTH",
"370 453 OFFCURVE",
"333 500 OFFCURVE",
"280 500 CURVE SMOOTH"
);
},
{
closed = 1;
nodes = (
"227 180 OFFCURVE",
"190 133 OFFCURVE",
"190 90 CURVE SMOOTH",
"190 47 OFFCURVE",
"227 0 OFFCURVE",
"280 0 CURVE SMOOTH",
"333 0 OFFCURVE",
"370 47 OFFCURVE",
"370 90 CURVE SMOOTH",
"370 133 OFFCURVE",
"333 180 OFFCURVE",
"280 180 CURVE SMOOTH"
);
}
);
width = 560;
}
);
unicode = 003A;
},
{
glyphname = comma;
lastChange = "2014-04-21 02:56:00 -0800";
layers = (
{
guideLines = (
{
angle = 90;
position = "{70, 800}";
},
{
angle = 90;
position = "{490, 800}";
},
{
angle = 90;
position = "{280, 800}";
},
{
position = "{10, 250}";
}
);
layerId = "85308D4F-3C98-4E4B-A926-E3A24A251B96";
name = Regular;
paths = (
{
closed = 1;
nodes = (
"227 180 OFFCURVE",
"190 128 OFFCURVE",
"190 85 CURVE SMOOTH",
"190 42 OFFCURVE",
"226 0 OFFCURVE",
"260 0 CURVE SMOOTH",
"260 0 OFFCURVE",
"256 -83 OFFCURVE",
"165 -150 CURVE SMOOTH",
"165 -150 OFFCURVE",
"370 -98 OFFCURVE",
"370 85 CURVE SMOOTH",
"370 128 OFFCURVE",
"333 180 OFFCURVE",
"280 180 CURVE SMOOTH"
);
}
);
width = 560;
}
);
unicode = 002C;
},
{
glyphname = exclam;
lastChange = "2014-04-21 02:55:52 -0800";
layers = (
{
guideLines = (
{
angle = 90;
position = "{70, 800}";
},
{
angle = 90;
position = "{490, 800}";
},
{
angle = 90;
position = "{280, 800}";
}
);
layerId = "85308D4F-3C98-4E4B-A926-E3A24A251B96";
name = Regular;
paths = (
{
closed = 1;
nodes = (
"245 130 OFFCURVE",
"215 100 OFFCURVE",
"215 65 CURVE SMOOTH",
"215 30 OFFCURVE",
"245 0 OFFCURVE",
"280 0 CURVE SMOOTH",
"315 0 OFFCURVE",
"345 30 OFFCURVE",
"345 65 CURVE SMOOTH",
"345 100 OFFCURVE",
"315 130 OFFCURVE",
"280 130 CURVE SMOOTH"
);
},
{
closed = 1;
nodes = (
"320 230 LINE",
"350 700 LINE",
"210 700 LINE",
"240 230 LINE"
);
}
);
width = 560;
}
);
unicode = 0021;
},
{
glyphname = numbersign;
lastChange = "2014-04-21 02:57:07 -0800";
layers = (
{
guideLines = (
{
angle = 90;
position = "{70, 800}";
},
{
angle = 90;
position = "{490, 800}";
},
{
angle = 90;
position = "{280, 800}";
},
{
position = "{10, 350}";
}
);
layerId = "85308D4F-3C98-4E4B-A926-E3A24A251B96";
name = Regular;
paths = (
{
closed = 1;
nodes = (
"230 670 LINE",
"230 500 LINE",
"330 500 LINE",
"330 670 LINE",
"410 670 LINE",
"410 500 LINE",
"490 500 LINE",
"490 420 LINE",
"410 420 LINE",
"410 280 LINE",
"490 280 LINE",
"490 200 LINE",
"410 200 LINE",
"410 30 LINE",
"330 30 LINE",
"330 200 LINE",
"230 200 LINE",
"230 30 LINE",
"150 30 LINE",
"150 200 LINE",
"70 200 LINE",
"70 280 LINE",
"150 280 LINE",
"150 420 LINE",
"70 420 LINE",
"70 500 LINE",
"150 500 LINE",
"150 670 LINE"
);
},
{
closed = 1;
nodes = (
"230 280 LINE",
"330 280 LINE",
"330 420 LINE",
"230 420 LINE"
);
}
);
width = 560;
}
);
unicode = 0023;
},
{
glyphname = period;
lastChange = "2014-04-21 02:56:59 -0800";
layers = (
{
guideLines = (
{
angle = 90;
position = "{70, 800}";
},
{
angle = 90;
position = "{490, 800}";
},
{
angle = 90;
position = "{280, 800}";
}
);
layerId = "85308D4F-3C98-4E4B-A926-E3A24A251B96";
name = Regular;
paths = (
{
closed = 1;
nodes = (
"227 180 OFFCURVE",
"190 133 OFFCURVE",
"190 90 CURVE SMOOTH",
"190 47 OFFCURVE",
"227 0 OFFCURVE",
"280 0 CURVE SMOOTH",
"333 0 OFFCURVE",
"370 47 OFFCURVE",
"370 90 CURVE SMOOTH",
"370 133 OFFCURVE",
"333 180 OFFCURVE",
"280 180 CURVE SMOOTH"
);
}
);
width = 560;
}
);
unicode = 002E;
},
{
glyphname = question;
lastChange = "2014-04-21 02:56:55 -0800";
layers = (
{
guideLines = (
{
angle = 90;
position = "{70, 800}";
},
{
angle = 90;
position = "{490, 800}";
},
{
angle = 90;
position = "{280, 800}";
},
{
position = "{10, 350}";
}
);
layerId = "85308D4F-3C98-4E4B-A926-E3A24A251B96";
name = Regular;
paths = (
{
closed = 1;
nodes = (
"320 310 LINE",
"402 310 OFFCURVE",
"495 356 OFFCURVE",
"495 505 CURVE SMOOTH",
"495 644 OFFCURVE",
"395 700 OFFCURVE",
"280 700 CURVE SMOOTH",
"240 700 OFFCURVE",
"155 700 OFFCURVE",
"70 610 CURVE",
"127 553 LINE",
"195 615 OFFCURVE",
"255 620 OFFCURVE",
"280 620 CURVE SMOOTH",
"335 620 OFFCURVE",
"415 595 OFFCURVE",
"415 505 CURVE SMOOTH",
"415 385 OFFCURVE",
"325 390 OFFCURVE",
"240 390 CURVE",
"240 230 LINE",
"320 230 LINE"
);
},
{
closed = 1;
nodes = (
"245 130 OFFCURVE",
"215 100 OFFCURVE",
"215 65 CURVE SMOOTH",
"215 30 OFFCURVE",
"245 0 OFFCURVE",
"280 0 CURVE SMOOTH",
"315 0 OFFCURVE",
"345 30 OFFCURVE",
"345 65 CURVE SMOOTH",
"345 100 OFFCURVE",
"315 130 OFFCURVE",
"280 130 CURVE SMOOTH"
);
}
);
width = 560;
}
);
unicode = 003F;
},
{
glyphname = quotedbl;
lastChange = "2014-04-21 02:57:52 -0800";
layers = (
{
guideLines = (
{
angle = 90;
position = "{70, 800}";
},
{
angle = 90;
position = "{490, 800}";
},
{
angle = 90;
position = "{280, 800}";
},
{
position = "{10, 250}";
}
);
layerId = "85308D4F-3C98-4E4B-A926-E3A24A251B96";
name = Regular;
paths = (
{
closed = 1;
nodes = (
"240 780 LINE",
"200 500 LINE",
"150 500 LINE",
"110 780 LINE"
);
},
{
closed = 1;
nodes = (
"450 780 LINE",
"410 500 LINE",
"360 500 LINE",
"320 780 LINE"
);
}
);
width = 560;
}
);
unicode = 0022;
},
{
glyphname = quotesingle;
lastChange = "2014-04-21 02:57:45 -0800";
layers = (
{
guideLines = (
{
angle = 90;
position = "{70, 800}";
},
{
angle = 90;
position = "{490, 800}";
},
{
angle = 90;
position = "{280, 800}";
},
{
position = "{10, 250}";
}
);
layerId = "85308D4F-3C98-4E4B-A926-E3A24A251B96";
name = Regular;
paths = (
{
closed = 1;
nodes = (
"345 780 LINE",
"305 500 LINE",
"255 500 LINE",
"215 780 LINE"
);
}
);
width = 560;
}
);
unicode = 0027;
},
{
glyphname = semicolon;
lastChange = "2014-04-21 02:57:38 -0800";
layers = (
{
guideLines = (
{
angle = 90;
position = "{70, 800}";
},
{
angle = 90;
position = "{490, 800}";
},
{
angle = 90;
position = "{280, 800}";
}
);
layerId = "85308D4F-3C98-4E4B-A926-E3A24A251B96";
name = Regular;
paths = (
{
closed = 1;
nodes = (
"227 180 OFFCURVE",
"190 128 OFFCURVE",
"190 85 CURVE SMOOTH",
"190 42 OFFCURVE",
"226 0 OFFCURVE",
"260 0 CURVE SMOOTH",
"260 0 OFFCURVE",
"256 -83 OFFCURVE",
"165 -150 CURVE SMOOTH",
"165 -150 OFFCURVE",
"370 -98 OFFCURVE",
"370 85 CURVE SMOOTH",
"370 128 OFFCURVE",
"333 180 OFFCURVE",
"280 180 CURVE SMOOTH"
);
},
{
closed = 1;
nodes = (
"227 500 OFFCURVE",
"190 453 OFFCURVE",
"190 410 CURVE SMOOTH",
"190 367 OFFCURVE",
"227 320 OFFCURVE",
"280 320 CURVE SMOOTH",
"333 320 OFFCURVE",
"370 367 OFFCURVE",
"370 410 CURVE SMOOTH",
"370 453 OFFCURVE",
"333 500 OFFCURVE",
"280 500 CURVE SMOOTH"
);
}
);
width = 560;
}
);
unicode = 003B;
},
{
glyphname = slash;
lastChange = "2014-04-21 02:57:34 -0800";
layers = (
{
guideLines = (
{
angle = 90;
position = "{70, 800}";
},
{
angle = 90;
position = "{490, 800}";
},
{
angle = 90;
position = "{280, 800}";
}
);
layerId = "85308D4F-3C98-4E4B-A926-E3A24A251B96";
name = Regular;
paths = (
{
closed = 1;
nodes = (
"480 780 LINE",
"160 -80 LINE",
"80 -80 LINE",
"400 780 LINE"
);
}
);
width = 560;
}
);
unicode = 002F;
},
{
glyphname = underscore;
lastChange = "2014-04-21 02:57:27 -0800";
layers = (
{
guideLines = (
{
angle = 90;
position = "{70, 800}";
},
{
angle = 90;
position = "{490, 800}";
},
{
angle = 90;
position = "{280, 800}";
}
);
layerId = "85308D4F-3C98-4E4B-A926-E3A24A251B96";
name = Regular;
paths = (
{
closed = 1;
nodes = (
"55 -180 LINE",
"505 -180 LINE",
"505 -100 LINE",
"55 -100 LINE"
);
}
);
width = 560;
}
);
unicode = 005F;
},
{
glyphname = braceleft;
lastChange = "2014-04-21 02:58:48 -0800";
layers = (
{
guideLines = (
{
angle = 90;
position = "{70, 800}";
},
{
angle = 90;
position = "{490, 800}";
},
{
angle = 90;
position = "{280, 800}";
},
{
position = "{10, 350}";
}
);
layerId = "85308D4F-3C98-4E4B-A926-E3A24A251B96";
name = Regular;
paths = (
{
closed = 1;
nodes = (
"320 80 OFFCURVE",
"310 0 OFFCURVE",
"450 0 CURVE",
"450 -80 LINE",
"303 -80 OFFCURVE",
"242 -50 OFFCURVE",
"242 260 CURVE",
"242 290 OFFCURVE",
"215 310 OFFCURVE",
"190 310 CURVE",
"110 310 LINE",
"110 390 LINE",
"190 390 LINE",
"215 390 OFFCURVE",
"242 410 OFFCURVE",
"242 440 CURVE",
"242 750 OFFCURVE",
"308 780 OFFCURVE",
"450 780 CURVE",
"450 700 LINE",
"310 700 OFFCURVE",
"320 620 OFFCURVE",
"320 420 CURVE",
"320 390 OFFCURVE",
"280 350 OFFCURVE",
"240 350 CURVE",
"280 350 OFFCURVE",
"320 310 OFFCURVE",
"320 280 CURVE"
);
}
);
width = 560;
}
);
unicode = 007B;
},
{
glyphname = braceright;
lastChange = "2014-04-21 02:58:42 -0800";
layers = (
{
guideLines = (
{
angle = 90;
position = "{70, 800}";
},
{
angle = 90;
position = "{490, 800}";
},
{
angle = 90;
position = "{280, 800}";
},
{
position = "{10, 350}";
}
);
layerId = "85308D4F-3C98-4E4B-A926-E3A24A251B96";
name = Regular;
paths = (
{
closed = 1;
nodes = (
"240 310 OFFCURVE",
"280 350 OFFCURVE",
"320 350 CURVE",
"280 350 OFFCURVE",
"240 390 OFFCURVE",
"240 420 CURVE",
"240 620 OFFCURVE",
"250 700 OFFCURVE",
"110 700 CURVE",
"110 780 LINE",
"252 780 OFFCURVE",
"318 750 OFFCURVE",
"318 440 CURVE",
"318 410 OFFCURVE",
"345 390 OFFCURVE",
"370 390 CURVE",
"450 390 LINE",
"450 310 LINE",
"370 310 LINE",
"345 310 OFFCURVE",
"318 290 OFFCURVE",
"318 260 CURVE",
"318 -50 OFFCURVE",
"257 -80 OFFCURVE",
"110 -80 CURVE",
"110 0 LINE",
"250 0 OFFCURVE",
"240 80 OFFCURVE",
"240 280 CURVE"
);
}
);
width = 560;
}
);
unicode = 007D;
},
{
glyphname = bracketleft;
lastChange = "2014-04-21 02:58:34 -0800";
layers = (
{
guideLines = (
{
angle = 90;
position = "{70, 800}";
},
{
angle = 90;
position = "{490, 800}";
},
{
angle = 90;
position = "{280, 800}";
},
{
position = "{10, 350}";
}
);
layerId = "85308D4F-3C98-4E4B-A926-E3A24A251B96";
name = Regular;
paths = (
{
closed = 1;
nodes = (
"390 780 LINE",
"390 700 LINE",
"250 700 LINE",
"250 0 LINE",
"390 0 LINE",
"390 -80 LINE",
"170 -80 LINE",
"170 780 LINE"
);
}
);
width = 560;
}
);
unicode = 005B;
},
{
glyphname = bracketright;
lastChange = "2014-04-21 02:58:29 -0800";
layers = (
{
guideLines = (
{
angle = 90;
position = "{70, 800}";
},
{
angle = 90;
position = "{490, 800}";
},
{
angle = 90;
position = "{280, 800}";
},
{
position = "{10, 350}";
}
);
layerId = "85308D4F-3C98-4E4B-A926-E3A24A251B96";
name = Regular;
paths = (
{
closed = 1;
nodes = (
"390 -80 LINE",
"170 -80 LINE",
"170 0 LINE",
"310 0 LINE",
"310 700 LINE",
"170 700 LINE",
"170 780 LINE",
"390 780 LINE"
);
}
);
width = 560;
}
);
unicode = 005D;
},
{
glyphname = parenleft;
lastChange = "2014-04-21 02:58:16 -0800";
layers = (
{
guideLines = (
{
angle = 90;
position = "{70, 800}";
},
{
angle = 90;
position = "{490, 800}";
},
{
angle = 90;
position = "{280, 800}";
},
{
position = "{10, 350}";
}
);
layerId = "85308D4F-3C98-4E4B-A926-E3A24A251B96";
name = Regular;
paths = (
{
closed = 1;
nodes = (
"390 780 CURVE",
"390 700 LINE",
"310 700 OFFCURVE",
"250 500 OFFCURVE",
"250 350 CURVE",
"250 208 OFFCURVE",
"310 0 OFFCURVE",
"390 0 CURVE",
"390 -80 LINE",
"280 -80 OFFCURVE",
"170 80 OFFCURVE",
"170 350 CURVE",
"170 620 OFFCURVE",
"280 780 OFFCURVE"
);
}
);
width = 560;
}
);
unicode = 0028;
},
{
glyphname = parenright;
lastChange = "2014-04-21 02:59:39 -0800";
layers = (
{
guideLines = (
{
angle = 90;
position = "{70, 800}";
},
{
angle = 90;
position = "{490, 800}";
},
{
angle = 90;
position = "{280, 800}";
},
{
position = "{10, 350}";
}
);
layerId = "85308D4F-3C98-4E4B-A926-E3A24A251B96";
name = Regular;
paths = (
{
closed = 1;
nodes = (
"390 620 OFFCURVE",
"390 350 CURVE",
"390 80 OFFCURVE",
"280 -80 OFFCURVE",
"170 -80 CURVE",
"170 0 LINE",
"250 0 OFFCURVE",
"310 200 OFFCURVE",
"310 350 CURVE",
"310 500 OFFCURVE",
"250 700 OFFCURVE",
"170 700 CURVE",
"170 780 LINE",
"280 780 OFFCURVE"
);
}
);
width = 560;
}
);
unicode = 0029;
},
{
glyphname = hyphen;
lastChange = "2014-04-21 02:59:33 -0800";
layers = (
{
guideLines = (
{
angle = 90;
position = "{70, 800}";
},
{
angle = 90;
position = "{490, 800}";
},
{
position = "{-40, 300}";
},
{
angle = 90;
position = "{280, 800}";
},
{
position = "{-40, 250}";
}
);
layerId = "85308D4F-3C98-4E4B-A926-E3A24A251B96";
name = Regular;
paths = (
{
closed = 1;
nodes = (
"70 260 LINE",
"490 260 LINE",
"490 340 LINE",
"70 340 LINE"
);
}
);
width = 560;
}
);
unicode = 002D;
},
{
glyphname = dollar;
lastChange = "2014-04-21 02:59:27 -0800";
layers = (
{
guideLines = (
{
angle = 90;
position = "{70, 800}";
},
{
angle = 90;
position = "{490, 800}";
},
{
angle = 90;
position = "{280, 800}";
},
{
position = "{10, 350}";
}
);
layerId = "85308D4F-3C98-4E4B-A926-E3A24A251B96";
name = Regular;
paths = (
{
closed = 1;
nodes = (
"170 130 OFFCURVE",
"200 120 OFFCURVE",
"240 120 CURVE",
"240 310 LINE",
"145 310 OFFCURVE",
"70 400 OFFCURVE",
"70 485 CURVE",
"70 570 OFFCURVE",
"145 660 OFFCURVE",
"240 660 CURVE",
"240 780 LINE",
"320 780 LINE",
"320 660 LINE",
"380 660 OFFCURVE",
"430 640 OFFCURVE",
"490 580 CURVE",
"430 530 LINE",
"390 570 OFFCURVE",
"360 580 OFFCURVE",
"320 580 CURVE",
"320 390 LINE",
"415 390 OFFCURVE",
"490 300 OFFCURVE",
"490 215 CURVE",
"490 130 OFFCURVE",
"415 40 OFFCURVE",
"320 40 CURVE",
"320 -80 LINE",
"240 -80 LINE",
"240 40 LINE",
"180 40 OFFCURVE",
"130 60 OFFCURVE",
"70 120 CURVE",
"130 170 LINE"
);
},
{
closed = 1;
nodes = (
"180 580 OFFCURVE",
"150 530 OFFCURVE",
"150 485 CURVE",
"150 440 OFFCURVE",
"180 390 OFFCURVE",
"240 390 CURVE",
"240 580 LINE"
);
},
{
closed = 1;
nodes = (
"320 120 LINE",
"380 120 OFFCURVE",
"410 170 OFFCURVE",
"410 215 CURVE",
"410 260 OFFCURVE",
"380 310 OFFCURVE",
"320 310 CURVE"
);
}
);
width = 560;
}
);
unicode = 0024;
},
{
glyphname = asciitilde;
lastChange = "2014-04-21 02:59:21 -0800";
layers = (
{
guideLines = (
{
angle = 90;
position = "{70, 800}";
},
{
angle = 90;
position = "{490, 800}";
},
{
angle = 90;
position = "{280, 800}";
},
{
position = "{0, 350}";
}
);
layerId = "85308D4F-3C98-4E4B-A926-E3A24A251B96";
name = Regular;
paths = (
{
closed = 1;
nodes = (
"90 430 OFFCURVE",
"140 450 OFFCURVE",
"200 450 CURVE",
"290 450 OFFCURVE",
"310 330 OFFCURVE",
"370 330 CURVE",
"410 330 OFFCURVE",
"430 370 OFFCURVE",
"450 430 CURVE",
"510 370 LINE",
"470 270 OFFCURVE",
"420 250 OFFCURVE",
"360 250 CURVE",
"270 250 OFFCURVE",
"250 370 OFFCURVE",
"190 370 CURVE",
"160 370 OFFCURVE",
"130 330 OFFCURVE",
"110 270 CURVE",
"50 330 LINE"
);
}
);
width = 560;
}
);
unicode = 007E;
},
{
glyphname = equal;
lastChange = "2014-04-21 02:59:13 -0800";
layers = (
{
guideLines = (
{
angle = 90;
position = "{70, 800}";
},
{
angle = 90;
position = "{490, 800}";
},
{
position = "{-40, 300}";
},
{
angle = 90;
position = "{280, 800}";
},
{
position = "{-40, 250}";
}
);
layerId = "85308D4F-3C98-4E4B-A926-E3A24A251B96";
name = Regular;
paths = (
{
closed = 1;
nodes = (
"70 390 LINE",
"490 390 LINE",
"490 470 LINE",
"70 470 LINE"
);
},
{
closed = 1;
nodes = (
"70 130 LINE",
"490 130 LINE",
"490 210 LINE",
"70 210 LINE"
);
}
);
width = 560;
}
);
unicode = 003D;
},
{
glyphname = greater;
lastChange = "2014-04-21 03:01:27 -0800";
layers = (
{
guideLines = (
{
angle = 90;
position = "{70, 800}";
},
{
angle = 90;
position = "{490, 800}";
},
{
angle = 90;
position = "{280, 800}";
}
);
layerId = "85308D4F-3C98-4E4B-A926-E3A24A251B96";
name = Regular;
paths = (
{
closed = 1;
nodes = (
"490 390 LINE",
"490 310 LINE",
"70 0 LINE",
"70 80 LINE",
"420 350 LINE",
"70 620 LINE",
"70 700 LINE"
);
}
);
width = 560;
}
);
unicode = 003E;
},
{
glyphname = less;
lastChange = "2014-04-21 03:01:23 -0800";
layers = (
{
guideLines = (
{
angle = 90;
position = "{70, 800}";
},
{
angle = 90;
position = "{490, 800}";
},
{
angle = 90;
position = "{280, 800}";
},
{
position = "{10, 350}";
}
);
layerId = "85308D4F-3C98-4E4B-A926-E3A24A251B96";
name = Regular;
paths = (
{
closed = 1;
nodes = (
"490 620 LINE",
"140 350 LINE",
"490 80 LINE",
"490 0 LINE",
"70 310 LINE",
"70 390 LINE",
"490 700 LINE"
);
}
);
width = 560;
}
);
unicode = 003C;
},
{
glyphname = percent;
lastChange = "2014-04-21 03:01:18 -0800";
layers = (
{
guideLines = (
{
angle = 90;
position = "{70, 800}";
},
{
angle = 90;
position = "{490, 800}";
},
{
angle = 90;
position = "{280, 800}";
},
{
position = "{10, 350}";
}
);
layerId = "85308D4F-3C98-4E4B-A926-E3A24A251B96";
name = Regular;
paths = (
{
closed = 1;
nodes = (
"480 610 LINE",
"160 90 LINE",
"80 90 LINE",
"400 610 LINE"
);
},
{
closed = 1;
nodes = (
"372 240 OFFCURVE",
"340 208 OFFCURVE",
"340 165 CURVE SMOOTH",
"340 122 OFFCURVE",
"372 90 OFFCURVE",
"415 90 CURVE SMOOTH",
"458 90 OFFCURVE",
"490 122 OFFCURVE",
"490 165 CURVE SMOOTH",
"490 208 OFFCURVE",
"458 240 OFFCURVE",
"415 240 CURVE SMOOTH"
);
},
{
closed = 1;
nodes = (
"102 610 OFFCURVE",
"70 578 OFFCURVE",
"70 535 CURVE SMOOTH",
"70 492 OFFCURVE",
"102 460 OFFCURVE",
"145 460 CURVE SMOOTH",
"188 460 OFFCURVE",
"220 492 OFFCURVE",
"220 535 CURVE SMOOTH",
"220 578 OFFCURVE",
"188 610 OFFCURVE",
"145 610 CURVE SMOOTH"
);
}
);
width = 560;
}
);
unicode = 0025;
},
{
glyphname = plus;
lastChange = "2014-04-21 03:01:12 -0800";
layers = (
{
guideLines = (
{
angle = 90;
position = "{70, 800}";
},
{
angle = 90;
position = "{490, 800}";
},
{
angle = 90;
position = "{280, 800}";
},
{
position = "{10, 250}";
},
{
position = "{10, 350}";
}
);
layerId = "85308D4F-3C98-4E4B-A926-E3A24A251B96";
name = Regular;
paths = (
{
closed = 1;
nodes = (
"320 560 LINE",
"320 390 LINE",
"490 390 LINE",
"490 310 LINE",
"320 310 LINE",
"320 140 LINE",
"240 140 LINE",
"240 310 LINE",
"70 310 LINE",
"70 390 LINE",
"240 390 LINE",
"240 560 LINE"
);
}
);
width = 560;
}
);
unicode = 002B;
},
{
glyphname = ampersand;
lastChange = "2014-04-21 03:01:04 -0800";
layers = (
{
guideLines = (
{
angle = 90;
position = "{70, 800}";
},
{
angle = 90;
position = "{490, 800}";
},
{
angle = 90;
position = "{280, 800}";
},
{
position = "{0, 350}";
},
{
angle = 50;
position = "{170, 430}";
},
{
angle = 50;
position = "{226, 374}";
},
{
angle = -55;
position = "{150, 410}";
},
{
angle = -55;
position = "{206, 476}";
},
{
angle = 50;
position = "{500, 232}";
},
{
angle = 50;
position = "{444, 288}";
}
);
layerId = "85308D4F-3C98-4E4B-A926-E3A24A251B96";
name = Regular;
paths = (
{
closed = 1;
nodes = (
"177 518 OFFCURVE",
"150 552 OFFCURVE",
"150 575 CURVE SMOOTH",
"150 608 OFFCURVE",
"180 620 OFFCURVE",
"205 620 CURVE SMOOTH",
"228 620 OFFCURVE",
"260 616 OFFCURVE",
"260 575 CURVE SMOOTH",
"260 553 OFFCURVE",
"248 523 OFFCURVE",
"207 475 CURVE"
);
},
{
closed = 1;
nodes = (
"170 80 OFFCURVE",
"135 135 OFFCURVE",
"135 205 CURVE SMOOTH",
"135 248 OFFCURVE",
"147 280 OFFCURVE",
"198 341 CURVE",
"330 153 LINE",
"313 134 OFFCURVE",
"285 80 OFFCURVE",
"230 80 CURVE SMOOTH"
);
},
{
closed = 1;
nodes = (
"302 464 OFFCURVE",
"340 497 OFFCURVE",
"340 577 CURVE SMOOTH",
"340 647 OFFCURVE",
"289 700 OFFCURVE",
"205 700 CURVE SMOOTH",
"121 700 OFFCURVE",
"70 644 OFFCURVE",
"70 575 CURVE SMOOTH",
"70 514 OFFCURVE",
"110 463 OFFCURVE",
"151 408 CURVE",
"89 334 OFFCURVE",
"55 287 OFFCURVE",
"55 205 CURVE SMOOTH",
"55 86 OFFCURVE",
"116 0 OFFCURVE",
"230 0 CURVE SMOOTH",
"320 0 OFFCURVE",
"346 51 OFFCURVE",
"377 86 CURVE",
"437 0 LINE",
"539 0 LINE",
"433 152 LINE",
"513 247 LINE",
"455 301 LINE",
"386 219 LINE",
"254 407 LINE"
);
}
);
width = 560;
}
);
unicode = 0026;
},
{
glyphname = asciicircum;
lastChange = "2014-04-21 03:02:25 -0800";
layers = (
{
guideLines = (
{
angle = 90;
position = "{70, 800}";
},
{
angle = 90;
position = "{490, 800}";
},
{
position = "{-37, 300}";
},
{
angle = 90;
position = "{280, 800}";
}
);
layerId = "85308D4F-3C98-4E4B-A926-E3A24A251B96";
name = Regular;
paths = (
{
closed = 1;
nodes = (
"240 700 LINE",
"320 700 LINE",
"490 300 LINE",
"410 300 LINE",
"280 620 LINE",
"150 300 LINE",
"70 300 LINE"
);
}
);
width = 560;
}
);
unicode = 005E;
},
{
glyphname = at;
lastChange = "2014-04-21 03:02:18 -0800";
layers = (
{
guideLines = (
{
angle = 90;
position = "{70, 800}";
},
{
angle = 90;
position = "{490, 800}";
},
{
angle = 90;
position = "{280, 800}";
},
{
position = "{10, 350}";
}
);
layerId = "85308D4F-3C98-4E4B-A926-E3A24A251B96";
name = Regular;
paths = (
{
closed = 1;
nodes = (
"300 0 LINE",
"140 0 OFFCURVE",
"55 110 OFFCURVE",
"55 350 CURVE SMOOTH",
"55 590 OFFCURVE",
"141 700 OFFCURVE",
"280 700 CURVE SMOOTH",
"440 700 OFFCURVE",
"505 610 OFFCURVE",
"505 430 CURVE SMOOTH",
"505 210 OFFCURVE",
"458 170 OFFCURVE",
"350 170 CURVE",
"244 170 OFFCURVE",
"220 257 OFFCURVE",
"220 350 CURVE",
"220 452 OFFCURVE",
"270 500 OFFCURVE",
"350 500 CURVE",
"350 420 LINE",
"326 420 OFFCURVE",
"300 411 OFFCURVE",
"300 350 CURVE",
"300 301 OFFCURVE",
"306 250 OFFCURVE",
"350 250 CURVE",
"406 250 OFFCURVE",
"425 270 OFFCURVE",
"425 430 CURVE SMOOTH",
"425 550 OFFCURVE",
"390 620 OFFCURVE",
"280 620 CURVE SMOOTH",
"190 620 OFFCURVE",
"135 520 OFFCURVE",
"135 350 CURVE SMOOTH",
"135 190 OFFCURVE",
"200 80 OFFCURVE",
"300 80 CURVE",
"490 80 LINE",
"490 0 LINE"
);
}
);
width = 560;
}
);
unicode = 0040;
},
{
glyphname = bar;
lastChange = "2014-04-21 03:02:12 -0800";
layers = (
{
guideLines = (
{
angle = 90;
position = "{70, 800}";
},
{
angle = 90;
position = "{490, 800}";
},
{
angle = 90;
position = "{280, 800}";
},
{
position = "{0, 350}";
}
);
layerId = "85308D4F-3C98-4E4B-A926-E3A24A251B96";
name = Regular;
paths = (
{
closed = 1;
nodes = (
"320 780 LINE",
"320 -80 LINE",
"240 -80 LINE",
"240 780 LINE"
);
}
);
width = 560;
}
);
unicode = 007C;
},
{
glyphname = blackstar;
lastChange = "2014-04-21 02:49:32 -0800";
layers = (
{
guideLines = (
{
angle = 90;
position = "{70, 800}";
},
{
angle = 90;
position = "{490, 800}";
},
{
angle = 90;
position = "{280, 800}";
}
);
layerId = "85308D4F-3C98-4E4B-A926-E3A24A251B96";
name = Regular;
paths = (
{
closed = 1;
nodes = (
"70 348 LINE SMOOTH",
"230 348 LINE",
"280 500 LINE",
"330 348 LINE",
"490 348 LINE",
"360 254 LINE",
"410 102 LINE",
"280 196 LINE",
"150 102 LINE",
"200 254 LINE"
);
}
);
width = 560;
}
);
unicode = 2605;
},
